<?xml version="1.0" standalone="no"?>
<!DOCTYPE svg PUBLIC "-//W3C//DTD SVG 1.1//EN" "http://www.w3.org/Graphics/SVG/1.1/DTD/svg11.dtd" >
<!--
2013-9-30: Created.
-->
<svg>
<metadata>
Created by iconfont
</metadata>
<defs>

<font id="iconfont" horiz-adv-x="1024" >
  <font-face
    font-family="iconfont"
    font-weight="500"
    font-stretch="normal"
    units-per-em="1024"
    ascent="896"
    descent="-128"
  />
    <missing-glyph />
    
    <glyph glyph-name="mubiaojiance" unicode="&#59050;" d="M512 853.333333c257.322667 0 466.346667-207.104 469.333333-463.744a30.72 30.72 0 0 0-0.042666-14.250666L981.333333 384c0-258.304-208.64-467.84-466.602666-469.333333a15.36 15.36 0 0 0-0.554667 0H512C252.8-85.333333 42.666667 124.8 42.666667 384S252.8 853.333333 512 853.333333zM107.818667 414.592h34.474666a32 32 0 1 0 0-64h-34.261333a405.418667 405.418667 0 0 1 374.186667-370.858667v30.933334a32 32 0 0 0 64 0v-30.592a405.418667 405.418667 0 0 1 369.749333 370.474666h-29.866667a32 32 0 0 0 0 64h30.08a405.418667 405.418667 0 0 1-369.962666 373.333334v-33.408a32 32 0 1 0-64 0v33.792a405.418667 405.418667 0 0 1-374.4-373.674667zM512 597.333333c93.866667 0 170.666667-79.36 170.666667-176.810666a179.2 179.2 0 0 0-49.365334-124.288c-0.597333-0.64-40.832-42.496-121.301333-125.568l-120.704 124.928A179.626667 179.626667 0 0 0 341.333333 420.522667C341.333333 518.016 418.133333 597.333333 512 597.333333z m0-116.352c-31.402667 0-56.874667-26.026667-56.874667-58.197333 0-32.128 25.472-58.197333 56.874667-58.197333s56.874667 26.069333 56.874667 58.197333c0 32.128-25.472 58.197333-56.874667 58.197333z"  horiz-adv-x="1024" />

    
    <glyph glyph-name="bianhuajiance" unicode="&#59049;" d="M512 853.333333c257.322667 0 466.346667-207.104 469.333333-463.744a30.72 30.72 0 0 0-0.042666-14.250666L981.333333 384c0-258.304-208.64-467.84-466.602666-469.333333a15.36 15.36 0 0 0-0.554667 0H512C252.8-85.333333 42.666667 124.8 42.666667 384S252.8 853.333333 512 853.333333zM107.818667 414.592h34.474666a32 32 0 1 0 0-64h-34.261333a405.418667 405.418667 0 0 1 374.186667-370.858667v30.933334a32 32 0 0 0 64 0v-30.592a405.418667 405.418667 0 0 1 369.749333 370.474666h-29.866667a32 32 0 0 0 0 64h30.08a405.418667 405.418667 0 0 1-369.962666 373.333334v-33.408a32 32 0 1 0-64 0v33.792a405.418667 405.418667 0 0 1-374.4-373.674667zM512 640a256 256 0 1 0 0-512 256 256 0 0 0 0 512z m-213.333333-256a213.333333 213.333333 0 0 1 192-212.266667v424.533334A213.333333 213.333333 0 0 1 298.666667 384z m421.504-46.933333l-186.88-118.528v-46.805334a213.504 213.504 0 0 1 186.88 165.376z m-6.656 117.205333l-180.224-116.906667v-68.266666l191.872 121.856v2.304a212.608 212.608 0 0 1-11.648 61.013333z m-54.442667 84.266667L533.333333 454.613333v-66.389333l161.962667 105.045333a214.272 214.272 0 0 1-36.181333 45.226667zM533.333333 596.266667l-0.042666-90.410667 90.112 60.117333a212.053333 212.053333 0 0 1-90.069334 30.293334z"  horiz-adv-x="1024" />

    
    <glyph glyph-name="zidingyifanwei" unicode="&#59040;" d="M512 682.666667c140.8 0 256-111.061333 256-247.466667a242.133333 242.133333 0 0 0-74.069333-174.08l-0.810667-0.810667c-7.637333-7.381333-67.754667-65.706667-181.12-174.976l-181.034667 174.933334C282.496 307.456 256 369.578667 256 435.2 256 571.562667 371.2 682.666667 512 682.666667z m0-162.901334c-47.146667 0-85.333333-36.48-85.333333-81.493333 0-44.970667 38.186667-81.408 85.333333-81.408s85.333333 36.437333 85.333333 81.450667c0 44.970667-38.186667 81.450667-85.333333 81.450666zM109.866667 725.333333v-682.666666H128a42.666667 42.666667 0 0 0 42.666667-42.666667v-18.133333h682.666666V0a42.666667 42.666667 0 0 0 42.666667 42.666667h19.541333V731.904a33.621333 33.621333 0 0 0 67.2 0v-689.28A42.666667 42.666667 0 0 0 1024 0v-85.333333a42.666667 42.666667 0 0 0-42.666667-42.666667h-85.333333a42.666667 42.666667 0 0 0-42.666667 42.666667H170.666667a42.666667 42.666667 0 0 0-42.666667-42.666667H42.666667a42.666667 42.666667 0 0 0-42.666667 42.666667v85.333333a42.666667 42.666667 0 0 0 42.666667 42.666667V725.333333a42.666667 42.666667 0 0 0-42.666667 42.666667V853.333333a42.666667 42.666667 0 0 0 42.666667 42.666667h85.333333a42.666667 42.666667 0 0 0 42.666667-41.429333h691.2a33.578667 33.578667 0 1 0 0-67.2H170.666667V768a42.666667 42.666667 0 0 0-42.666667-42.666667h-18.133333zM896-85.333333h85.333333v85.333333h-85.333333v-85.333333zM42.666667-85.333333h85.333333v85.333333H42.666667v-85.333333zM42.666667 768h85.333333V853.333333H42.666667v-85.333333zM981.333333 896a42.666667 42.666667 0 0 0 42.666667-42.666667v-85.333333a42.666667 42.666667 0 0 0-42.666667-42.666667h-85.333333a42.666667 42.666667 0 0 0-42.666667 42.666667V853.333333a42.666667 42.666667 0 0 0 42.666667 42.666667h85.333333z m0-42.666667h-85.333333v-85.333333h85.333333V853.333333z"  horiz-adv-x="1024" />

    
    <glyph glyph-name="zuobiaofanweixuanqubeifen" unicode="&#59041;" d="M704 413.866667c110.421333 0 200.533333-91.178667 200.533333-203.008 0-46.464-15.530667-90.965333-44.074666-126.976l-6.826667-8.106667-7.850667-8.448-141.781333-143.445333-141.866667 143.573333a203.818667 203.818667 0 0 0-58.666666 143.402667c0 111.786667 90.112 203.008 200.533333 203.008zM512 861.866667c252.16 0 456.533333-204.373333 456.533333-456.533334 0-30.762667-3.029333-61.141333-9.045333-90.837333l-3.925333-17.706667-6.954667-28.501333-9.429333 27.776a233.173333 233.173333 0 0 1-23.466667 49.237333l-7.68 11.434667-0.170667 0.682667-0.469333 0.256a242.602667 242.602667 0 0 1-17.536 21.632l-9.685333 10.069333-10.282667 9.514667-17.066667 14.933333 55.808 0.042667-0.085333 6.144a394.837333 394.837333 0 0 1-80.298667 225.024l-9.386666 11.904-3.797334 4.437333-7.168-6.4c-16.768-14.250667-34.517333-27.306667-53.12-39.04l-14.122666-8.533333-8.661334-4.736 3.157334-12.8c5.973333-25.984 10.624-52.992 13.952-80.810667l2.261333-20.992 1.706667-21.248 0.768-10.666667-10.538667 1.664-12.970667 1.664-12.8 0.981334-23.893333 0.512-0.597333 7.68a742.144 742.144 0 0 1-14.250667 99.029333l-2.090667 9.130667-12.501333-4.693334c-37.674667-13.312-77.056-21.632-117.376-24.661333l-17.365333-0.981333L512 546.133333c-54.4 0-107.52 9.514667-157.482667 27.904L347.306667 576.853333l-2.133334-9.301333a754.346667 754.346667 0 0 1-15.573333-120.064l-0.810667-20.992-0.170666-12.629333h226.645333l-17.066667-14.933334a245.333333 245.333333 0 0 1-29.141333-30.208l-8.448-11.093333-6.912-3.498667H330.154667l0.810666-11.946666c2.645333-34.56 7.509333-68.096 14.378667-99.797334l4.352-18.773333 2.389333-9.344 7.808 2.901333c16.853333 5.973333 34.133333 10.965333 51.626667 14.933334l17.621333 3.584 17.834667 2.901333 9.941333 1.408-0.384-18.176c0-7.808 0.213333-15.445333 0.682667-22.869333l0.853333-11.008 0.768-8.021334-7.978666-1.237333a388.394667 388.394667 0 0 1-71.168-17.792l-9.429334-3.584 1.28-3.285333c32.597333-83.968 79.445333-136.576 127.829334-144.469334l6.314666-0.768 6.314667-0.256c8.96 0 17.92 1.536 26.88 4.608l6.613333 2.56 5.546667 2.432 55.338667-59.818666-15.445334-2.730667c-25.898667-4.48-52.266667-6.784-78.933333-6.784-252.16 0-456.533333 204.373333-456.533333 456.533333C55.466667 657.493333 259.84 861.866667 512 861.866667zM316.074667 131.754667l-8.96-5.205334a397.738667 397.738667 0 0 1-39.210667-27.008l-4.309333-3.498666 4.437333-3.669334c29.482667-23.04 62.08-41.813333 96.853333-55.68l2.346667-0.853333-6.101333 8.576c-16 23.466667-30.293333 50.730667-42.624 81.066667l-2.432 6.272zM270.336 354.133333H118.528l0.64-5.205333a395.221333 395.221333 0 0 1 96-206.933333l4.437333-4.821334 7.552 6.272c18.858667 15.104 38.869333 28.672 59.904 40.576l9.813334 5.333334-3.84 14.208a787.2 787.2 0 0 0-21.76 134.912l-0.938667 15.658666z m433.664-85.333333a55.466667 55.466667 0 1 1 0-110.933333 55.466667 55.466667 0 0 1 0 110.933333zM208.896 661.376l-6.741333-8.106667a394.709333 394.709333 0 0 1-85.845334-217.856l-0.853333-15.104-0.128-6.442666 153.6-0.042667 0.170667 15.317333c1.493333 55.381333 8.064 109.056 19.328 158.848l3.541333 14.72-8.789333 4.864a455.893333 455.893333 0 0 0-68.309334 48.469334l-5.973333 5.333333zM512 802.133333c-56.32 0-111.914667-61.866667-147.114667-163.498666l-1.365333-3.925334 7.509333-3.029333a394.538667 394.538667 0 0 1 124.757334-25.472L512 605.866667a395.861333 395.861333 0 0 1 140.970667 25.770666l7.424 3.029334-1.28 3.925333c-33.877333 97.92-86.698667 158.890667-140.842667 163.285333L512 802.133333z m-144.725333-27.221333l-2.389334-0.938667a396.629333 396.629333 0 0 1-109.098666-65.621333l-4.906667-4.266667 6.784-5.973333a394.666667 394.666667 0 0 1 44.8-32.426667l7.082667-4.224 1.706666 4.906667c14.293333 39.125333 31.658667 73.642667 51.584 102.357333l4.437334 6.186667z m289.450666-0.042667l4.437334-6.144c19.626667-28.288 36.778667-62.165333 50.858666-100.48l2.389334-6.741333 7.125333 4.138667a396.117333 396.117333 0 0 1 44.8 32.426666l6.741333 5.973334-4.864 4.266666a396.330667 396.330667 0 0 1-109.098666 65.664l-2.389334 0.896z"  horiz-adv-x="1024" />

    
    <glyph glyph-name="shoucang" unicode="&#59038;" d="M490.349714 116.626286l-195.803428-102.948572a46.555429 46.555429 0 0 0-67.547429 49.042286l37.376 218.038857a46.555429 46.555429 0 0 1-13.385143 41.216l-158.390857 154.404572a46.555429 46.555429 0 0 0 25.782857 79.396571l218.916572 31.817143c15.177143 2.194286 28.269714 11.702857 35.072 25.453714l97.901714 198.363429a46.555429 46.555429 0 0 0 83.456 0l97.901714-198.363429c6.802286-13.750857 19.894857-23.259429 35.072-25.453714l218.916572-31.817143a46.555429 46.555429 0 0 0 25.782857-79.36l-158.390857-154.441143c-10.971429-10.678857-15.981714-26.112-13.385143-41.216l37.376-218.038857a46.555429 46.555429 0 0 0-67.547429-49.042286l-195.803428 102.948572a46.555429 46.555429 0 0 1-43.300572 0z"  horiz-adv-x="1024" />

    
    <glyph glyph-name="quanquanb" unicode="&#59091;" d="M491.880777-74.394105c-237.529835 0-430.759721 193.240119-430.759721 430.759721 0 237.529835 193.229886 430.769954 430.759721 430.769954s430.759721-193.240119 430.759721-430.769954C922.640498 118.846014 729.410612-74.394105 491.880777-74.394105zM491.880777 726.786087c-204.250894 0-370.410238-166.168554-370.410238-370.419448 0-204.240661 166.159344-370.410238 370.410238-370.410238S862.289991 152.124955 862.289991 356.365616C862.289991 560.61651 696.131671 726.786087 491.880777 726.786087zM491.880777 171.279201c-102.056374 0-185.096648 83.030042-185.096648 185.087439s83.040275 185.087439 185.096648 185.087439 185.077206-83.030042 185.077206-185.087439S593.937151 171.279201 491.880777 171.279201zM491.880777 481.102548c-68.777433 0-124.747165-55.959499-124.747165-124.736932s55.968709-124.736932 124.747165-124.736932S616.607476 287.588183 616.607476 356.365616 560.65821 481.102548 491.880777 481.102548z"  horiz-adv-x="1024" />

    
    <glyph glyph-name="shouquanguanli" unicode="&#59037;" d="M329.054 274.9H164.467a12.035 12.035 0 0 0-12 12V451.484a12.035 12.035 0 0 0 12 12h164.587a12.035 12.035 0 0 0 12-12V286.9a12.035 12.035 0 0 0-12-12z m12-240.039V199.445a12.035 12.035 0 0 1-12 12H164.467a12.035 12.035 0 0 1-12-12v-164.587a12.035 12.035 0 0 1 12-12h164.587a12.035 12.035 0 0 1 12 12z m268.945 0V199.445a12.035 12.035 0 0 1-12 12H433.412a12.035 12.035 0 0 1-12-12v-164.587a12.035 12.035 0 0 1 12-12H598a12.035 12.035 0 0 1 12 12zM818.483 790.933a98.584 98.584 0 0 1-98.47-98.471 97.534 97.534 0 0 1 15.351-52.262L575.988 480.824a31.947 31.947 0 1 1 45.179-45.18L644.547 459a20.119 20.119 0 0 1 2.892-4.327l18.179-18.173a21.292 21.292 0 0 1 30.12 0l48.32 48.3a21.3 21.3 0 0 1 0 30.13l-18.18 18.179a21.074 21.074 0 0 1-4.347 2.9l61.861 61.872a27.3 27.3 0 0 1 1.581 2.372 97.27 97.27 0 0 1 33.51-6.271 98.476 98.476 0 1 1 0 196.952z m0-133.052a34.576 34.576 0 1 0 34.592 34.581 34.624 34.624 0 0 0-34.592-34.581zM329.054 526.936H164.467a12.035 12.035 0 0 0-12 12V703.523a12.035 12.035 0 0 0 12 12h164.587a12.035 12.035 0 0 0 12-12v-164.587a12.035 12.035 0 0 0-12-12z m228.908-110.587c-14.9 12.013-16.936 29.546-17.187 47.135H432.888a11.509 11.509 0 0 1-11.476-11.476v-165.635a11.509 11.509 0 0 1 11.476-11.473h165.635A11.509 11.509 0 0 1 610 286.373v114.3c-18.082 0.16-37.676 4.097-52.038 15.676z m309.506 47.135h-97.016c-19.056-28.7-44.933-55.463-80.1-59.428v-117.683a11.509 11.509 0 0 1 11.481-11.473h165.635a11.509 11.509 0 0 1 11.476 11.476V452.008a11.509 11.509 0 0 1-11.476 11.476z m11.476-428.626V199.445a12.035 12.035 0 0 1-12 12H702.357a12.035 12.035 0 0 1-12-12v-164.587a12.035 12.035 0 0 1 12-12h164.587a12.035 12.035 0 0 1 12 12z m-341 494.2a55.245 55.245 0 0 1 2.273 1.341c4.985 3.126 9.5 7.206 14.064 10.916a250.437 250.437 0 0 1 24.02 22.1 274.269 274.269 0 0 1 20.299 24.178c4.95 6.62 9.692 13.924 11.154 22.114 0.082 0.559 0.162 1.118 0.248 1.676v92.664a11.509 11.509 0 0 1-11.476 11.476H432.888a11.509 11.509 0 0 1-11.476-11.476v-165.635a11.51 11.51 0 0 1 11.476-11.476h90.49c0.383 0.112 0.761 0.233 1.142 0.349a75.029 75.029 0 0 1 13.427 1.77z"  horiz-adv-x="1024" />

    
    <glyph glyph-name="jiantou9" unicode="&#59019;" d="M1003.61543566 637.1142519499999c16.23027257-20.80595285 17.59249863-46.88616221 3.03880989-58.24968136l-474.67144989-370.25746944c-3.2833115-2.57309241-13.83182563-8.90685667-15.62483939-10.89780166-17.68564167-19.54851385-43.11384633-25.41656064-56.82924203-13.04010411l-447.04272839 403.12551879c-13.7153957 12.38809941-10.54851299 38.30530731 7.13712868 57.90039268 17.68564167 19.58344249 43.11384633 25.42820352 56.87581354 13.05174698l406.85126315-366.86937088 464.5071542 362.34026326C962.45760569 665.58126535 987.42009173 657.90856078 1003.61543566 637.1142519499999z"  horiz-adv-x="1024" />

    
    <glyph glyph-name="wenjianjiaguanbi" unicode="&#59018;" d="M742.3 657c30.7 0 55.9-27.5 55.9-61H572.3c-23.7 0-45.9 16.8-53 42.7l-5.6 18.3h228.6z m111.5-82v22.7c0 62.6-51.1 113.6-113.6 113.6h-250c-19.9 34.1-58.3 56.8-99.4 56.8H244.4c-62.6 0.1-113.6-51.1-113.6-113.5V114c0-62.5 51.1-113.6 113.6-113.6h541.2c62.6 0 113.6 51.1 113.6 113.6V484.1c0 36.9-18.4 69.6-45.4 90.9z"  horiz-adv-x="1024" />

    
    <glyph glyph-name="wenjian-13" unicode="&#59017;" d="M777.728 556.032l-207.872 208.896-0.512-151.04c0-31.744 25.6-57.856 57.344-57.856h151.04zM281.6 787.456c-29.696 0-53.76-22.016-57.344-50.688l-0.512-6.656v-691.2c0-29.696 22.016-53.76 50.688-57.344l6.656-0.512h460.8c29.696 0 53.76 22.016 57.344 50.688l0.512 6.656V498.176h-173.056c-60.928 0-110.08 47.616-114.688 107.008l-0.512 8.704 0.512 173.056H281.6z m576-749.056c0-63.488-51.712-115.2-115.2-115.2H281.6c-63.488 0-115.2 51.712-115.2 115.2v691.2C166.4 793.088 218.112 844.8 281.6 844.8h288.768l287.232-285.696v-520.704z"  horiz-adv-x="1024" />

    
    <glyph glyph-name="zhanghao-09" unicode="&#59011;" d="M972.8-86.6816H51.2c0 199.936 153.6 362.0864 384 362.0864h153.6c230.4 0 384-162.1504 384-362.0864zM767.1296 593.5616a261.12 261.12 0 1 0-261.12 261.12 261.12 261.12 0 0 0 261.12-261.12z"  horiz-adv-x="1024" />

    
    <glyph glyph-name="mima-12" unicode="&#59012;" d="M371.712 421.9392a38.1952 38.1952 0 0 1-53.4528 0 36.352 36.352 0 0 1 0-52.3264l135.8336-133.12 2.2016-2.2016a36.3008 36.3008 0 0 1 50.5344 0l234.6496 229.9904a34.4576 34.4576 0 0 1 0 49.408l-2.9184 2.8672a36.1472 36.1472 0 0 1-50.5344 0L481.28 314.368zM512 844.8l403.2-131.6352v-395.008c0-218.112-180.5312-394.9568-403.2-394.9568s-403.2 176.8448-403.2 394.9568V713.1648z"  horiz-adv-x="1024" />

    
    <glyph glyph-name="youxiang-11" unicode="&#59015;" d="M246.0672 574.0032a46.08 46.08 0 0 1-69.2736-9.6256 59.2896 59.2896 0 0 1 8.6528-77.1584L481.6896 230.4a45.4144 45.4144 0 0 1 60.6208 0l296.2432 256.5632a59.2896 59.2896 0 0 1 8.6528 77.1584 46.08 46.08 0 0 1-69.2736 9.6256l-265.9328-230.4zM158.72 787.2h706.56a107.52 107.52 0 0 0 107.52-107.52v-591.1552a107.52 107.52 0 0 0-107.52-107.52H158.72a107.52 107.52 0 0 0-107.52 107.52V679.4752a107.52 107.52 0 0 0 107.52 107.7248z"  horiz-adv-x="1024" />

    
    <glyph glyph-name="shouji-10" unicode="&#59016;" d="M654.592 641.792h-285.184a27.648 27.648 0 1 0 0 55.296h285.184a27.648 27.648 0 1 0 0-55.296zM582.5024 128a68.9664 68.9664 0 0 0-68.864-68.6592h-3.0208A68.9664 68.9664 0 0 0 441.7536 128v2.9696A68.9152 68.9152 0 0 0 510.6176 199.68h3.0208a68.9152 68.9152 0 0 0 68.864-68.6592z m153.1904 716.8H288.3072a93.1328 93.1328 0 0 1-93.1328-92.8768v-735.8976A93.1328 93.1328 0 0 1 288.3072-76.8h447.3856a93.1328 93.1328 0 0 1 93.1328 92.8256V751.9232A93.1328 93.1328 0 0 1 735.6928 844.8z"  horiz-adv-x="1024" />

    
    <glyph glyph-name="sort-up" unicode="&#59009;" d="M384 755.008V-32q0-14.016 8.992-23.008T416-64t23.008 8.992T448-32V676.992l243.008-242.016q10.016-10.016 22.496-10.016t22.016 10.016 9.504 22.496-8.992 22.496L439.04 776.96q-7.008 7.008-16.512 8.992t-18.496-2.016-14.496-11.488-5.504-17.504z"  horiz-adv-x="1024" />

    
    <glyph glyph-name="sort-down" unicode="&#59010;" d="M576 800v-710.016l-243.008 243.008q-12.992 12.992-30.496 8.512t-22.496-22.496T288 288l296.992-296.992q7.008-7.008 16.512-8.992t18.496 2.016 14.496 11.488 5.504 17.504V800.032q0 14.016-8.992 23.008T608 832.032t-23.008-8.992-8.992-23.008z"  horiz-adv-x="1024" />

    
    <glyph glyph-name="tufu-08" unicode="&#59008;" d="M206.49301333 373.07733333a32.768 32.768 0 0 0 0 65.536h146.36373334a32.768 32.768 0 1 0 0-65.536z m0 131.072a32.768 32.768 0 0 0 0 65.536h349.52533334a32.768 32.768 0 0 0 0-65.536z m0 131.072a32.768 32.768 0 0 0 0 65.536h349.52533334a32.768 32.768 0 0 0 0-65.536zM894.29333333-63.829333330000054H129.70666667v-10.92266667a32.768 32.768 0 0 0-65.536 0v10.92266667h-11.63264a32.768 32.768 0 0 0 0 65.536H64.17066667V766.29333333h-10.92266667a32.768 32.768 0 0 0 0 65.536h10.92266667v10.92266667a32.768 32.768 0 0 0 65.536 0v-10.92266667h764.58666666v10.92266667a32.768 32.768 0 0 0 65.536 0v-10.92266667h10.92266667a32.768 32.768 0 0 0 0-65.536h-10.92266667v-766.27968a32.768 32.768 0 0 0 0-62.14997333V-74.75199999999995a32.768 32.768 0 0 0-65.536 0z m-14.19946666 65.536l-180.49706667 491.02848-148.22058667-325.65930667c-0.60074667-1.31072-0.60074667-1.31072-1.25610666-2.56682667a54.61333333 54.61333333 0 0 0-73.61877334-23.31989333l-164.60458666 85.46986667L158.87018667 1.7066666700000042zM506.53866667 199.35231999999996l-10.21269334 5.46133333-4.80597333-10.43114666v0.49152a10.92266667 10.92266667 0 0 0 15.01866667 4.47829333z m387.75466666-73.83722667V766.29333333H129.70666667v-719.69450666l133.42037333 224.89770666a54.61333333 54.61333333 0 0 0 70.34197333 17.74933334l163.0208-84.59605334 154.50112 339.47648a54.61333333 54.61333333 0 0 0 100.98005334-3.82293333z"  horiz-adv-x="1024" />

    
    <glyph glyph-name="guanbi-07" unicode="&#59000;" d="M658.0736 529.5104a28.416 28.416 0 0 1-37.12 2.2528l-108.0832-110.0288-107.52 108.0832a28.5184 28.5184 0 0 1-39.1168 0 29.8496 29.8496 0 0 1-1.0752-39.68l107.52-108.0832L367.616 276.48a26.5728 26.5728 0 0 1 1.9456-35.4816 30.2592 30.2592 0 0 1 36.352-0.8192l105.5232 105.5744L619.52 234.5984a32.1024 32.1024 0 0 1 36.864 3.6352 26.4704 26.4704 0 0 1 3.328 36.3008l-108.3392 111.1552 108.0832 110.0288a24.7296 24.7296 0 0 1-1.3824 34.0992zM512-76.8a460.8 460.8 0 1 0 460.8 460.8 460.8 460.8 0 0 0-460.8-460.8z"  horiz-adv-x="1024" />

    
    <glyph glyph-name="shijian-dingshi-06" unicode="&#59006;" d="M512 778.5472A395.9808 395.9808 0 0 1 116.9408 384c0-216.9344 177.8176-394.5472 395.0592-394.5472s395.0592 177.6128 395.0592 394.5472S729.2416 778.5472 512 778.5472z m0-854.7328A460.1856 460.1856 0 1 0 972.8 384a460.4928 460.4928 0 0 0-460.8-460.1856z m38.912 460.1856h192.1536a38.4512 38.4512 0 1 0 0-76.8h-230.4a38.4 38.4 0 0 0-38.4512 38.4V576.0512a38.4512 38.4512 0 1 0 76.8 0z"  horiz-adv-x="1024" />

    
    <glyph glyph-name="zhongmingming-05" unicode="&#59007;" d="M512 844.8a460.8 460.8 0 1 1 460.8-460.8 460.8 460.8 0 0 1-460.8 460.8z m0-855.8592A395.0592 395.0592 0 1 0 907.0592 384 396.288 396.288 0 0 0 512-11.0592zM677.1712 221.0816H575.488a35.84 35.84 0 0 1 0-71.68h101.6832a35.84 35.84 0 0 1 0 71.68zM545.7408 521.0624l-269.9264-271.7696v-100.6592h100.6592l270.0288 271.6672-100.7616 100.7616zM682.5984 618.1888a26.6752 26.6752 0 0 1-18.944 7.936 26.2144 26.2144 0 0 1-18.8928-7.936l-49.2032-49.0496L696.32 468.3776l49.152 49.1008a26.88 26.88 0 0 1 0 37.9392z"  horiz-adv-x="1024" />

    
    <glyph glyph-name="jiansuo-021" unicode="&#58999;" d="M531.456 143.872c121.856 0 220.672 98.816 220.672 220.672s-98.816 220.672-220.672 220.672S310.784 486.4 310.784 364.544s98.304-220.672 220.672-220.672z m-441.856-105.472v-76.8h76.8v76.8h-76.8z m0 768v-76.8h76.8v76.8h-76.8z m768 0v-76.8h76.8v76.8h-76.8zM150.016 76.8h16.384c20.992 0 38.4-17.408 38.4-38.4v-17.408h257.536c16.896 0 30.208-13.312 30.208-30.208s-13.312-30.208-30.208-30.208H204.8c-0.512-20.992-17.408-37.376-38.4-37.376h-76.8c-20.992 0-38.4 17.408-38.4 38.4v76.8c0 20.992 17.408 38.4 38.4 38.4V691.2c-20.992 0-38.4 17.408-38.4 38.4v76.8c0 20.992 17.408 38.4 38.4 38.4h76.8c20.992 0 38.4-17.408 38.4-38.4h614.4c0 20.992 17.408 38.4 38.4 38.4h76.8c20.992 0 38.4-17.408 38.4-38.4v-76.8c0-20.48-16.384-37.888-36.864-38.4v-257.536c0.512-16.896-12.288-30.72-29.184-31.232-16.896-0.512-30.72 12.288-31.232 29.184V691.2h-17.408c-20.992 0-38.4 17.408-38.4 38.4v16.384H204.8v-16.384c0-20.992-17.408-38.4-38.4-38.4h-16.384v-614.4z m605.696 123.392l157.696-157.696c14.848-15.36 14.336-39.424-1.024-54.272-14.848-14.336-38.4-14.336-53.248 0l-156.672 156.672c-121.344-94.208-295.936-72.704-390.144 48.64S239.616 489.472 360.96 583.68s295.936 72.704 390.144-48.64c76.288-97.792 78.336-234.496 4.608-334.848z"  horiz-adv-x="1024" />

    
    <glyph glyph-name="zidingyijiansuo-03" unicode="&#59001;" d="M89.6 729.6h76.8v76.8h-76.8v-76.8z m0-768h76.8v76.8h-76.8v-76.8z m768 0h76.8v76.8h-76.8v-76.8zM150.016 691.2v-614.4h16.384c20.992 0 38.4-17.408 38.4-38.4v-16.384h614.4v16.384c0 20.992 17.408 38.4 38.4 38.4h17.408v257.536c-0.512 16.896 12.288 30.72 29.184 31.232 16.896 0.512 30.72-12.288 31.232-29.184V76.8c20.48-0.512 36.864-17.92 36.864-38.4v-76.8c0-20.992-17.408-38.4-38.4-38.4h-76.8c-20.992 0-38.4 17.408-38.4 38.4H204.8c0-20.992-17.408-38.4-38.4-38.4h-76.8c-20.992 0-38.4 17.408-38.4 38.4v76.8c0 20.992 17.408 38.4 38.4 38.4V691.2c-20.992 0-38.4 17.408-38.4 38.4v76.8c0 20.992 17.408 38.4 38.4 38.4h76.8c20.992 0 37.888-16.384 38.4-37.376h257.536c16.896 0.512 30.72-12.288 31.232-29.184 0.512-16.896-12.288-30.72-29.184-31.232H204.8v-17.408c0-20.992-17.408-38.4-38.4-38.4h-16.384z m764.416 22.016c8.704 11.264 6.144 27.136-5.12 35.84-9.216 6.656-21.504 6.656-30.72 0l-17.92-17.92 35.84-35.84 17.92 17.92z m35.328 71.168c29.696-29.184 30.208-77.312 0.512-107.008l-53.248-53.248-107.52 107.52 53.248 53.248c29.696 29.184 77.824 29.184 107.008-0.512zM416.768 150.528L281.6 115.2l27.136 141.824 466.432 460.8 107.52-106.496-465.92-460.8z"  horiz-adv-x="1024" />

    
    <glyph glyph-name="celiang-04" unicode="&#59002;" d="M235.008 339.456l461.824 461.824c14.848 14.848 39.424 14.848 54.272 0l189.952-189.952c14.848-14.848 14.848-39.424 0-54.272l-461.824-461.312c-14.848-14.848-39.424-14.848-54.272 0l-189.952 189.952c-14.848 14.336-14.848 38.4 0 53.76z m413.696 332.288l-40.96-40.96 74.752-74.752c11.264-11.264 11.264-29.696 0-40.96s-29.696-11.264-40.96 0l-74.24 74.752-40.96-40.96 47.616-47.616c11.264-11.264 11.264-29.696 0-40.96s-29.696-11.264-40.96 0l-47.616 47.616-40.448-40.96 47.616-47.616c11.264-11.264 11.264-29.696 0-40.96s-29.696-11.264-40.96 0L404.48 427.52l-40.96-40.96 47.616-47.616c11.264-11.264 11.264-29.696 0-40.96s-29.696-11.264-40.96 0l-47.616 47.616-33.28-33.28 162.816-162.816L886.784 583.68l-162.816 162.816-34.304-34.304 47.616-47.616c11.264-11.264 11.264-29.696 0-40.96s-29.696-11.264-40.96 0l-47.616 48.128zM89.6 729.6h76.8v76.8h-76.8v-76.8z m0-768h76.8v76.8h-76.8v-76.8z m768 0h76.8v76.8h-76.8v-76.8zM150.016 691.2v-614.4h16.384c20.992 0 38.4-17.408 38.4-38.4v-16.384h614.4v16.384c0 20.992 17.408 38.4 38.4 38.4h17.408v257.536c-0.512 16.896 12.288 30.72 29.184 31.232 16.896 0.512 30.72-12.288 31.232-29.184V76.8c20.48-0.512 36.864-17.92 36.864-38.4v-76.8c0-20.992-17.408-38.4-38.4-38.4h-76.8c-20.992 0-38.4 17.408-38.4 38.4H204.8c0-20.992-17.408-38.4-38.4-38.4h-76.8c-20.992 0-38.4 17.408-38.4 38.4v76.8c0 20.992 17.408 38.4 38.4 38.4V691.2c-20.992 0-38.4 17.408-38.4 38.4v76.8c0 20.992 17.408 38.4 38.4 38.4h76.8c20.992 0 37.888-16.384 38.4-37.376h257.536c16.896 0.512 30.72-12.288 31.232-29.184 0.512-16.896-12.288-30.72-29.184-31.232H204.8v-17.408c0-20.992-17.408-38.4-38.4-38.4h-16.384z"  horiz-adv-x="1024" />

    
    <glyph glyph-name="tuichuquanping" unicode="&#59005;" d="M159.232 236.544h163.84L138.24 51.2c-5.632-5.632-9.216-13.312-9.216-20.992 0-8.192 3.072-15.872 8.704-21.504 11.264-11.776 30.72-11.264 42.496 1.024l185.344 185.344v-163.84c0-8.192 2.56-15.872 8.192-21.504s13.312-9.216 20.992-9.216c16.384 0 29.696 13.824 29.696 30.72v233.984 1.024c0 7.68-3.072 14.336-8.192 19.456 0 0.512-0.512 0.512-0.512 1.024-1.024 1.024-2.048 1.536-3.584 2.048-5.12 4.096-11.264 6.144-17.408 6.656h-235.52c-16.896 0-30.72-13.312-30.72-29.696 0-15.872 13.824-29.184 30.72-29.184zM601.088 31.232c0-16.896 13.312-30.72 29.696-30.72 8.192 0 15.36 3.584 20.992 9.216 5.632 5.632 8.704 13.312 8.192 21.504v163.84l185.344-185.344c5.632-5.632 13.312-9.216 20.992-9.216 8.192 0 15.872 3.072 21.504 8.704s8.704 13.312 8.192 21.504c0 8.192-3.584 15.36-9.216 20.992L701.44 237.056h163.84c16.896 0 30.72 13.312 30.72 29.696 0 16.384-13.824 29.696-30.72 29.696H630.272c-6.656 0-12.288-2.56-17.408-6.656-1.024-1.024-2.56-1.536-3.584-2.048-0.512-0.512-0.512-0.512-0.512-1.024-4.608-5.12-8.192-11.776-8.192-19.456v-1.024l0.512-235.008zM323.072 531.968h-163.84c-16.896 0-30.72-13.312-30.72-29.696 0-8.192 3.584-15.36 9.216-20.992s13.312-8.704 21.504-8.192H394.24c6.144 0 12.8 2.56 17.408 6.656 1.024 1.024 2.56 1.536 3.072 2.048 0 0.512 0.512 0.512 0.512 1.024 5.12 5.12 8.192 12.288 8.192 19.456V737.28c0 16.896-13.312 30.72-29.696 30.72-8.192 0-15.36-3.584-20.992-9.216-5.632-5.632-8.704-13.312-8.192-21.504v-163.84L179.712 758.784c-11.776 11.776-31.232 12.288-42.496 1.024-5.632-5.632-8.704-13.312-8.192-21.504 0-8.192 3.584-15.36 9.216-20.992l184.832-185.344zM601.088 502.784V737.28c0 16.896 13.312 30.72 29.696 30.72 8.192 0 15.36-3.584 20.992-9.216 5.632-5.632 8.704-13.312 8.192-21.504v-163.84l185.344 185.344c5.632 5.632 13.312 9.216 20.992 9.216s15.872-3.072 21.504-8.704 8.704-13.312 8.192-21.504c0-8.192-3.584-15.36-9.216-20.992L701.44 531.456h163.84c16.896 0 30.72-13.312 30.72-29.696 0-16.384-13.824-29.696-30.72-29.696H630.272c-6.656 0-12.8 2.56-17.408 6.656-1.024 1.024-2.56 1.536-3.072 2.048-0.512 0.512-0.512 0.512-0.512 1.024-5.12 6.144-8.192 12.8-8.192 20.992 0-0.512 0 0 0 0z"  horiz-adv-x="1024" />

    
    <glyph glyph-name="daima" unicode="&#58998;" d="M126.24830768 140.75108062000004h770.84058105c7.29083955 0 13.2560719 5.96523235 13.2560719 13.25607189V771.07729952c0 7.29083955-5.96523235 13.2560719-13.2560719 13.25607189H126.91111127c-7.29083955 0-13.2560719-5.96523235-13.2560719-13.25607189v-617.07014701c-0.66280359-7.29083955 5.30242877-13.2560719 12.59326831-13.25607189zM94.43373511 881.1026963h835.13252978c43.74503728 0 79.53643141-35.79139413 79.53643141-79.53643141v-678.04807774c0-43.74503728-35.79139413-79.53643141-79.53643141-79.53643142H94.43373511c-43.74503728 0-79.53643141 35.79139413-79.53643141 79.53643142V801.56626489c0 43.74503728 35.79139413 79.53643141 79.53643141 79.53643141z m269.09825959-527.59166167c17.89569707-17.89569707 17.89569707-46.39625165 0-63.62914513-17.89569707-17.89569707-46.39625165-17.89569707-63.62914512 0L164.02811259 425.0938229c-17.89569707 17.89569707-17.89569707 46.39625165 0 63.62914512L299.90284958 624.59770501c17.89569707 17.89569707 46.39625165 17.89569707 63.62914512 0 17.89569707-17.89569707 17.89569707-46.39625165 0-63.62914513L259.47183028 456.90839547l104.06016442-103.39736084z m296.9360106 206.79472166c-17.89569707 17.89569707-17.89569707 46.39625165 0 63.62914513 17.89569707 17.89569707 46.39625165 17.89569707 63.62914512 0l135.2119334-135.87473699c17.89569707-17.89569707 17.89569707-46.39625165 0-63.62914513L724.09715042 289.2190859c-17.89569707-17.89569707-46.39625165-17.89569707-63.62914512 0-17.89569707 17.89569707-17.89569707 46.39625165 0 63.62914513L764.52816972 456.90839547l-104.06016442 103.39736082z m-122.61866509 72.24559186c9.94205392 23.19812583 36.45419773 33.80298335 59.65232356 23.86092942 23.19812583-9.94205392 33.80298335-36.45419773 23.86092941-59.65232355L485.48785619 280.60263917c-9.94205392-23.19812583-36.45419773-33.80298335-59.65232355-23.86092942-23.19812583 9.94205392-33.80298335 36.45419773-23.86092942 59.65232355l135.87473699 316.15731485z m421.54308646-741.67722287H61.29355536c-26.51214381 0-47.72185885 21.20971504-47.72185885 47.72185884S34.78141155-13.682157029999985 61.29355536-13.682157029999985h898.09887131c26.51214381 0 47.72185885-21.20971504 47.72185884-47.72185885 0-25.84934021-21.20971504-47.72185885-47.72185884-47.72185884z"  horiz-adv-x="1024" />

    
    <glyph glyph-name="jingweidudingwei" unicode="&#58997;" d="M760.832 135.168c37.376 0 68.096 30.208 68.096 68.096S798.72 271.36 760.832 271.36s-68.096-30.208-68.096-68.096 30.72-68.096 68.096-68.096z m144.896-79.872c-0.512-0.512-48.64-49.664-144.896-146.432l-143.872 145.92c-38.4 39.424-59.904 91.136-59.904 145.92 0 113.664 91.648 206.336 203.776 206.336s203.776-92.672 203.776-206.336c0-55.296-20.992-107.008-58.88-145.408zM399.36 667.648c36.352-8.192 74.24-12.288 112.64-12.288s75.776 4.096 112.64 12.288c-30.72 76.8-73.216 123.392-112.64 123.392-39.424 0.512-81.92-46.592-112.64-123.392z m347.648 44.032c-29.184 22.528-61.952 40.96-97.28 54.784 14.848-23.04 28.672-49.664 40.448-79.36 18.944 6.656 38.4 14.848 56.832 24.576z m-470.016 0c18.432-9.216 37.376-17.408 56.832-24.576 11.776 29.696 25.088 56.32 40.448 79.36-34.816-13.824-67.584-32.256-97.28-54.784z m0-609.792c29.184-22.528 61.952-40.96 97.28-54.784-14.848 23.04-28.672 49.664-40.448 79.36-18.944-7.168-38.4-15.36-56.832-24.576z m77.824 350.208h314.368c-3.072 55.296-11.264 105.984-23.04 151.04-43.008-10.24-88.064-15.36-134.144-15.36s-91.136 5.12-134.144 15.36C366.08 558.08 357.888 506.88 354.816 452.096z m539.136 0c-9.216 80.384-43.52 153.088-94.72 210.432-28.16-15.872-57.856-29.184-88.064-40.448 13.824-51.712 23.04-109.056 26.112-170.496h156.672z m-763.904 0H286.72c3.072 60.928 12.288 118.784 26.112 170.496-30.72 11.264-60.416 24.576-88.064 40.448-51.2-57.856-85.504-130.56-94.72-210.944zM128 384c5.12-89.6 40.96-170.496 96.768-233.472 28.16 15.872 57.856 29.184 88.064 40.448-15.872 57.856-25.088 123.392-27.136 193.024H128z m384.512-158.208c-0.512-5.632-0.512-11.776-0.512-17.408 0-16.896 2.048-33.792 5.12-50.176h-5.12c-38.4 0-75.776-4.096-112.64-12.288 30.72-76.8 73.216-123.392 112.64-123.392 18.944 0 38.912 10.752 57.344 30.72l15.36-16.896 62.464-60.928c-43.008-13.312-88.064-20.48-135.168-20.48-249.856 0-452.608 202.752-452.608 452.608S262.144 859.136 512 859.136s452.608-202.752 452.608-452.608c0-18.432-1.024-36.352-3.072-54.272-45.568 60.416-118.272 99.328-200.704 99.328-66.56 0-127.488-26.112-172.032-68.096H353.792c1.536-64 10.752-122.88 24.064-173.568 43.008 10.24 88.064 15.36 134.144 15.36 0 0.512 0.512 0.512 0.512 0.512z"  horiz-adv-x="1024" />

    
    <glyph glyph-name="dingweigongneng" unicode="&#58994;" d="M511.573 861.12c-263.466 0-476.906-213.333-476.906-476.907 0-263.466 213.44-476.906 476.906-476.906S988.48 120.64 988.48 384.213c0.107 263.36-213.333 476.907-476.907 476.907z m37.334-876.907V79.68c0 20.48-16.64 37.12-37.12 37.12-20.48 0-37.12-16.64-37.12-37.12v-95.467c-190.934 17.6-344.32 170.347-362.88 361.067h93.76c20.48 0 37.12 16.64 37.12 37.12 0 20.48-16.64 37.12-37.12 37.12h-94.08c17.066 192.32 171.093 346.88 363.2 364.587V689.6c0-20.48 16.64-37.12 37.12-37.12 20.48 0 37.12 16.64 37.12 37.12V784c192-17.92 345.92-172.373 362.88-364.587h-96.214c-20.48 0-37.12-16.64-37.12-37.12 0-20.48 16.64-37.12 37.12-37.12h95.787c-18.56-190.506-171.733-343.146-362.453-360.96zM511.573 479.68c-52.693 0-95.573-42.667-95.573-95.573 0-52.694 42.667-95.574 95.573-95.574 52.694 0 95.574 42.667 95.574 95.574-0.107 52.906-42.774 95.573-95.574 95.573z"  horiz-adv-x="1024" />

    
    <glyph glyph-name="dingwei-hangzhengquyu" unicode="&#58996;" d="M503.296 304.128H655.36l2.048 2.048c36.352 24.576 60.928 45.056 71.68 59.904l-1.024 1.024-8.704 8.704c-6.656-13.312-29.696-34.816-66.048-63.488h-129.536c27.136 53.248 34.304 82.944 22.528 93.696-15.872 14.848-109.056 206.336-107.008 223.232 2.048 10.752 4.608 18.944 9.216 25.6 34.304-5.632 63.488-11.264 87.552-17.408v5.12 6.656c-24.576 6.144-53.76 11.776-87.552 17.92h-4.608l-2.048-1.536c-6.656-8.704-11.264-18.944-13.824-33.792-4.096-21.504 93.184-217.088 109.568-231.936 6.656-6.144-4.608-36.352-29.696-87.04l-4.608-8.704zM446.464 153.088l9.216 2.048c0-10.752 4.608-27.648 9.216-38.4 6.656 10.752 11.264 29.696 11.264 55.296h-18.432c-4.608-8.192-6.656-14.336-11.264-18.944zM431.616 155.136c-0.512-0.512-0.512-1.024-1.024-1.536 1.024-0.512 1.536-0.512 2.56-1.024v3.072c-0.512-0.512-1.024-0.512-1.536-0.512zM741.888 394.24c87.552 80.384 131.584 120.832 132.096 121.344 34.304 32.256 53.76 74.752 53.76 120.32 0 94.208-83.456 171.008-185.856 171.008-102.4 0-185.856-76.8-185.856-171.008 0-45.568 19.456-88.064 54.272-120.832L741.888 394.24z m0 330.24c34.304 0 61.952-27.648 61.952-61.952s-27.648-61.952-61.952-61.952-61.952 27.648-61.952 61.952 27.648 61.952 61.952 61.952zM733.184 147.968h14.336v-22.016h-14.336zM855.552 257.536V463.872c-11.264-11.264-24.576-24.064-38.4-37.888v-117.76H721.92c15.872 22.016 28.672 42.496 38.4 60.928l-20.48-13.312c-9.728-16.384-21.504-34.816-36.352-54.272l-6.656-8.704h120.32v-35.84H230.4v125.44l31.744-36.352h199.68l2.048 2.048c17.92 33.792 29.696 55.296 31.744 63.488 2.048 12.8-36.352 89.088-54.784 112.64-6.656 8.704-17.92 23.552-34.304 40.448l-2.048 2.048L258.048 537.6l4.608-6.144c25.088-38.4 38.4-61.44 34.304-72.192-2.56-8.704-25.6-21.504-66.56-34.304V580.096c95.232 25.6 145.408 42.496 150.016 55.296 4.608 8.704 25.088 23.552 63.488 40.448l13.824 6.144-13.824 4.096c-3.584 1.024-13.312 1.536-29.184 2.048h-35.84c-24.576 0-55.808-1.024-94.208-2.048-17.92-6.144-36.352-6.144-54.784 0v2.048h311.296c3.072 12.288 6.656 24.576 11.776 36.352H196.608v-467.456H60.416v-138.24c0-76.288 66.048-138.24 147.968-138.24h613.376c81.92 0 147.968 61.44 147.968 138.24v138.24h-114.176zM230.4 677.888c17.92-4.096 40.96-4.096 58.88 2.048l136.192 6.656c-34.304-16.896-52.224-29.696-56.832-40.448-4.608-10.752-54.784-27.648-138.752-49.152V677.888z m560.128-479.744c1.536-1.536 3.072-3.072 4.096-4.608 1.536-1.536 2.56-3.584 4.096-5.12l-9.216-7.168c-1.536 2.048-2.56 4.096-4.096 6.144-1.536 2.048-3.072 3.584-4.608 5.12l9.728 5.632z m-514.56-2.56c6.656 0 17.92-2.048 31.744-2.048s25.088 0 31.744 2.048v-12.8c-6.656 0-17.92 2.048-31.744 2.048s-22.528-2.048-31.744-2.048v12.8zM230.4 418.816c43.008 14.848 72.704 29.696 74.752 42.496 4.608 10.752-6.656 35.84-31.744 72.192l124.928 25.6c13.824-16.896 25.088-29.696 31.744-38.4C445.952 499.712 484.864 424.96 482.304 414.72c-2.048-8.704-11.264-27.648-29.696-59.392H266.752L230.4 395.776v23.04z m2.56-229.376c4.608 6.144 9.216 10.752 11.264 16.896 4.608-2.048 11.264-6.144 13.824-8.704 2.048-2.048 2.048-2.048 0-2.048s-4.608-2.048-13.824-12.8c-4.608-4.096-13.824-14.848-20.48-18.944-2.048 4.096-6.656 6.144-9.216 8.704 7.168 4.096 13.824 10.752 18.432 16.896z m27.136-27.648c-2.048 0-6.656-4.096-13.824-14.848V76.8h-13.824c0 8.704 2.048 14.848 2.048 23.552v31.744c-4.608-4.096-9.216-10.752-13.824-14.848-2.048 4.096-4.608 6.144-9.216 10.752 9.216 6.144 17.92 14.848 25.088 23.552 6.656 8.704 9.216 14.848 13.824 18.944 4.096-2.048 8.192-5.632 12.288-7.68 0-0.512-0.512-1.024-2.56-1.024z m93.184-16.896h-2.048c-9.216 0-15.872 0-27.136 2.048v-55.296c0-10.752-4.608-14.848-29.696-16.896 0 4.096-2.048 8.704-6.656 14.848 20.48-2.048 25.088 0 25.088 6.144v51.2c-20.48 0-31.744 0-43.008-2.048v12.8c11.264 0 22.528-2.048 43.008-2.048s29.696 0 40.96 2.048v-12.8z m150.016 25.6h-15.872c-2.048-29.696-6.656-46.592-17.92-63.488 9.216-8.704 17.92-12.8 34.304-16.896 0-2.048-4.608-8.704-6.656-12.8-13.824 6.144-22.528 12.8-31.744 20.992-6.656-8.704-20.48-16.896-38.4-23.552-2.048 4.096-6.656 8.704-11.264 10.752 20.48 4.096 31.744 10.752 40.96 20.992-6.656 10.752-11.264 25.6-11.264 44.544 0-2.048-2.048-2.048-2.048-4.096-2.048 1.536-5.12 3.584-9.216 5.12v-7.68H414.72v-31.744c6.656 2.048 13.824 2.048 20.48 4.096v-12.8c-13.824-2.048-52.224-10.752-63.488-14.848-2.56 0-4.608 8.704-7.168 10.752 4.608 0 6.656 0 11.264 2.048v59.392h13.824c2.048 0 2.048 0 0-2.048s-2.048-4.096-2.048-8.704v-44.544l15.872 2.048V184.32c-13.824 0-22.528 0-29.696-2.048v12.8c6.656 0 17.92-2.048 31.744-2.048s25.088 0 31.744 2.048v-12.8c-6.656 0-13.824 0-22.528 2.048v-31.744c8.192 0 12.8 0 16.896 2.048 12.8 14.848 19.456 34.816 21.504 51.712 4.608-2.048 11.264-4.096 15.872-4.096 2.048 0 2.048-2.048 0-2.048 0 0-2.048-4.096-9.216-18.944h17.92c11.264 0 20.48 0 25.088 2.048v-12.8z m147.456-89.6c-6.656 2.048-20.48 2.048-58.88 2.048s-50.176 0-56.832-2.048v114.688c6.656 0 20.48-2.048 56.832-2.048s50.176 0 56.832 2.048v-12.8c-6.656 0-20.48 2.048-52.224 2.048h-47.616v-91.136h50.176c29.696 0 45.568 0 52.224 2.048v-14.848h-0.512z m-88.576 84.992l9.216 8.704c9.216-6.144 15.872-12.8 31.744-23.552 9.216 10.752 15.872 23.552 17.92 29.696l13.824-6.144c4.608-2.048 4.608-2.048 0-4.096-2.048 0-4.608-2.048-22.528-25.6 11.264-8.704 22.528-18.944 31.744-27.648l-11.264-10.752c-6.656 8.704-11.264 12.8-27.136 27.648-9.216-10.752-25.088-23.552-34.304-31.744-2.048 2.048-6.656 6.144-11.264 6.144 13.824 8.704 22.528 16.896 36.352 31.744-13.824 10.752-25.088 19.456-34.304 25.6z m140.8-71.168c-3.072-1.536-6.144-3.584-8.704-5.12-3.072-2.048-6.144-4.096-8.704-6.144-0.512 2.56-1.024 5.12-2.048 7.168-1.024 2.048-1.536 4.096-3.072 6.144l7.68 3.072 7.68 3.072V148.48c-5.632 0-10.24-0.512-13.824-1.024V158.72c1.536-0.512 3.584-0.512 6.144-1.024 2.048 0 4.608-0.512 7.68-0.512v12.8 9.728c0 2.56 0 5.632-0.512 7.68 0 2.56-0.512 4.608-0.512 7.168 1.536-0.512 3.584-1.024 5.632-1.024s4.096-0.512 6.656-0.512c1.024 0 1.536-0.512 2.048-1.024 0-0.512-0.512-1.024-1.024-1.536l-1.536-1.536c0-0.512-0.512-1.024-0.512-2.048v-30.208c5.632 0 9.728 0.512 12.8 1.024v-11.776c-3.072 0.512-7.168 1.024-12.8 1.024v-40.96c2.048 1.024 4.608 2.048 6.656 3.072 2.048 1.024 4.096 2.048 5.632 3.072-0.512-2.048-0.512-3.584-0.512-5.632 0-1.536 0.512-3.584 1.024-5.12-2.048-0.512-4.608-1.536-7.168-3.072-2.56-0.512-5.632-2.048-8.704-3.584z m27.136-9.728c-3.072-1.536-6.144-2.56-8.704-4.096l-1.536 6.144c-0.512 2.048-1.536 4.096-2.56 6.144 5.632 0.512 12.288 2.048 19.968 4.608s14.848 5.12 22.016 8.192c-1.024-3.584-0.512-7.168 0.512-10.752-3.072-1.024-6.656-2.048-10.24-3.072-3.584-1.024-6.656-2.048-10.24-3.584s-6.144-2.048-9.216-3.584z m-6.144 61.952v4.608c0 1.536 0 2.56-0.512 4.096 0 1.024 0 2.048-0.512 3.072 1.024 0 2.048-0.512 3.072-0.512 1.024 0 2.048 0 3.072-0.512s2.56 0 4.608 0h17.92c1.536 0 2.56 0 3.584 0.512 1.024 0 2.048 0 2.56 0.512 0-0.512-0.512-1.536-0.512-3.072 0-1.024-0.512-2.56-0.512-4.096v-33.28c0-2.048 0.512-4.608 1.024-8.192h-10.24v7.168h-14.336v-9.216H721.92c0.512 3.072 1.024 6.144 1.024 8.192 0.512 2.048 0.512 4.608 0.512 7.68v18.432c0.512 1.536 0.512 3.072 0.512 4.608z m79.36-66.048c-1.536-3.072-2.56-5.12-4.096-5.632-1.536-1.024-3.072-0.512-4.608 0.512-1.536 1.024-4.096 3.072-7.168 6.144-3.072 3.072-6.656 7.168-9.728 13.312-2.56-3.584-5.632-7.168-8.704-10.752-3.072-3.584-6.656-6.656-10.24-9.728-2.048 2.048-4.096 3.584-5.632 4.608-1.536 1.024-3.072 2.048-5.12 2.56 3.072 2.048 5.632 3.584 8.192 5.632 2.56 2.048 4.608 3.584 6.656 5.632 2.048 2.048 3.584 3.584 5.12 5.632l4.608 6.144c-1.536 3.584-2.56 7.168-3.584 10.752-1.024 3.584-2.048 8.192-2.56 13.312-0.512 5.12-1.536 10.752-2.048 17.408-0.512 6.656-1.024 14.336-1.536 23.552h-15.36c-4.608 0-8.192 0-11.776-0.512-3.584 0-6.656-0.512-9.216-0.512-3.072 0-5.632-0.512-8.192-0.512v12.288c2.56 0 5.632-0.512 8.192-0.512s5.632-0.512 8.704-0.512h27.648c0 3.072-0.512 5.632-0.512 8.192 0 2.048-0.512 4.096-0.512 5.632v4.096 4.096c2.048-0.512 4.096-1.024 6.656-1.024h6.144c1.536 0 2.56 0 2.56-0.512s-0.512-1.024-1.536-2.56c-0.512-0.512-1.024-2.56-1.536-5.632-0.512-3.072-0.512-7.168-1.024-12.8 6.656 0 12.288 0 16.896 0.512s9.216 0.512 13.312 1.024v-12.288c-4.096 0.512-8.192 0.512-13.312 1.024-5.12 0-10.752 0.512-16.896 0.512 0.512-13.312 1.536-24.064 2.048-32.256 1.024-8.704 2.048-15.36 3.584-20.48 1.024 3.072 2.048 6.144 2.56 9.728 1.024 3.584 1.536 7.168 2.56 10.752 0.512 3.584 1.536 7.168 1.536 10.752 0.512 3.584 0.512 6.656 1.024 8.704 2.56-1.024 5.12-2.048 6.656-2.56s3.584-1.024 4.608-1.024c2.048-0.512 2.048-1.024 0-2.56-0.512 0-0.512-1.024-1.024-2.048s-1.024-3.072-1.536-6.656c-1.536-8.192-3.584-15.872-5.632-22.528-2.048-6.656-4.096-11.776-6.144-14.848 2.56-4.608 4.608-7.68 6.144-10.24 1.536-2.048 3.072-3.584 4.096-3.584 1.024 0 2.048 1.024 2.56 3.072 0.512 2.048 1.024 5.12 1.536 9.728 1.536-2.56 3.072-4.608 5.12-6.144 2.048-1.536 3.584-2.56 5.632-3.072-2.048-6.144-3.584-10.752-5.12-13.824z"  horiz-adv-x="1024" />

    
    <glyph glyph-name="quanping" unicode="&#58995;" d="M393.3 59.6H229.5l185.1 185.2c5.8 5.5 9.1 13.1 9.2 21.1 0.1 8-2.9 15.7-8.5 21.4-11.4 11.6-30.6 11.2-42.5-0.8L187.7 101.3V265c0.2 8-2.8 15.7-8.4 21.5-5.5 5.8-13.1 9.1-21.1 9.2-16.2 0.2-29.5-13.6-29.5-30.6v-234c0.1-0.9 0-1 0-1.2 0-7.6 3.2-14.4 8.1-19.6 0.2-0.3 0.3-0.6 0.6-1 1-1 2.3-1.4 3.4-2.3 4.9-4.1 11.1-6.4 17.5-6.6 0.6 0.1 0.8 0 1 0h233.9c17.1 0 30.7 13.3 30.7 29.5 0 16.4-13.8 29.7-30.6 29.7z m502.8 205.5c0 17-13.3 30.8-29.5 30.6-8-0.1-15.6-3.4-21.2-9.2-5.6-5.8-8.6-13.5-8.4-21.5v-163.7L651.9 286.5c-5.5 5.8-13.1 9.1-21.1 9.2-8 0.1-15.7-2.9-21.4-8.5-5.5-5.8-8.6-13.5-8.4-21.5 0.1-8 3.5-15.6 9.2-21.1l185.2-185.2H631.6c-16.9 0-30.7-13.2-30.6-29.5 0-16.2 13.6-29.5 30.7-29.5h234l0.5 0.1 0.5-0.1c6.6 0 12.5 2.7 17.5 6.6 1.1 0.8 2.4 1.3 3.4 2.3 0.3 0.3 0.4 0.6 0.7 1 4.8 5.3 8 12 8 19.6l-0.1 0.6 0.1 0.6v234zM229.4 709h163.8c16.9 0 30.7 13.3 30.6 29.5-0.1 8-3.5 15.6-9.2 21.1-5.7 5.5-13.5 8.6-21.4 8.4H159.3c-0.2 0-0.4 0-0.6-0.1l-0.5 0.1c-6.4-0.2-12.6-2.5-17.5-6.6-1-0.8-2.4-1.3-3.3-2.3-0.2-0.3-0.3-0.7-0.6-1-5.1-5.2-8-12.2-8.2-19.6l0.1-0.5-0.1-0.7v-234c0-16.9 13.3-30.7 29.5-30.5 8 0.1 15.6 3.4 21.2 9.2 5.6 5.7 8.6 13.5 8.4 21.5V667.2L372.9 482c11.9-12 31-12.4 42.5-0.8 5.5 5.7 8.6 13.5 8.4 21.5-0.1 8-3.5 15.6-9.2 21.1L229.4 709zM896 738l0.1-0.6v-234c0-17-13.3-30.8-29.5-30.6-8 0.1-15.6 3.4-21.2 9.2-5.6 5.7-8.6 13.5-8.4 21.5V667.2L651.9 482c-5.5-5.8-13.1-9.1-21.1-9.2-8-0.1-15.7 2.9-21.4 8.5-5.5 5.7-8.6 13.5-8.4 21.5 0.1 8 3.5 15.6 9.2 21.1L795.4 709H631.6c-16.9 0-30.7 13.2-30.6 29.5 0 16.2 13.6 29.5 30.7 29.5h234l0.5-0.1 0.5 0.1c6.4-0.2 12.6-2.5 17.5-6.6 1.1-0.8 2.4-1.3 3.3-2.3 0.3-0.3 0.4-0.6 0.7-1 4.8-5.3 8-12 8-19.6l-0.2-0.5z"  horiz-adv-x="1024" />

    
    <glyph glyph-name="zuobiao" unicode="&#59004;" d="M193.806821-128C116.683453-128 53.896084-61.871158 53.896084 19.456a150.905263 150.905263 0 0 0 30.234948 91.459368c17.354105 23.013053 40.96 40.205474 67.314526 49.044211V686.403368C112.910821 703.272421 87.580295 742.615579 87.580295 787.024842 87.580295 847.117474 134.037558 896 191.165979 896c40.690526 0 77.554526-25.222737 94.261895-63.649684h523.964631c16.168421 25.815579 43.600842 41.552842 73.135158 41.552842 48.289684 0 87.578947-41.229474 87.578948-91.944421s-39.289263-91.998316-87.578948-91.998316c-37.187368 0-69.847579 24.468211-82.243368 60.577684h-511.461053a107.789474 107.789474 0 0 0-58.799158-64.619789v-524.018527c60.685474-17.138526 103.747368-75.452632 103.747369-142.443789C333.771453-61.871158 270.984084-128 193.806821-128z m0 212.938105c-33.738105 0-61.224421-29.372632-61.224421-65.482105s27.486316-65.482105 61.224421-65.482105c33.792 0 61.278316 29.372632 61.278316 65.482105s-27.486316 65.482105-61.278316 65.482105zM882.527663 820.762947c-19.779368 0-35.947789-17.354105-35.947789-38.696421 0-21.396211 16.168421-38.750316 35.947789-38.750315 19.779368 0 35.947789 17.408 36.001684 38.750315 0 21.342316-16.114526 38.696421-36.001684 38.696421zM391.600505-79.225263a33.845895 33.845895 0 0 0-33.199158 34.923789 34.169263 34.169263 0 0 0 33.522527 34.600421h458.64421a10.132211 10.132211 0 0 1 9.647158 10.401685V609.387789c0 19.186526 15.036632 34.762105 33.522526 34.762106 18.485895 0 33.522526-15.575579 33.522527-34.762106v-608.417684c0-44.193684-34.330947-80.195368-76.530527-80.195368H391.600505z m-9.647158 330.374737h-0.215579a40.205474 40.205474 0 0 0-38.912 41.121684c0.053895 22.474105 17.677474 40.744421 39.289264 40.744421h197.955368a40.259368 40.259368 0 0 0 39.019789-40.906105 40.636632 40.636632 0 0 0-10.940631-28.456421 40.474947 40.474947 0 0 0-28.079158-12.503579H381.953347z m-0.161684 198.278737a39.666526 39.666526 0 0 0-28.025263 12.503578 40.421053 40.421053 0 0 0-10.940632 28.564211c0.053895 22.474105 17.677474 40.744421 39.289264 40.744421h348.429473c21.611789 0 39.235368-18.270316 39.289263-40.744421a40.421053 40.421053 0 0 0-10.940631-28.564211 40.367158 40.367158 0 0 0-28.025263-12.503578H381.791663z"  horiz-adv-x="1024" />

    
    <glyph glyph-name="shangchuan-1" unicode="&#58993;" d="M1020.01777778 277.95911111c0-135.168-109.568-244.736-244.736-244.736-19.00088889 0-34.36088889 15.47377778-34.36088889 34.47466667 0 19.00088889 15.47377778 34.36088889 34.36088889 34.36088889 91.24977778 0.22755555 167.13955555 70.08711111 174.99022222 160.99555555 7.73688889 91.02222222-55.40977778 172.71466667-145.408 188.416l-20.25244445 3.41333333-6.48533333 19.34222223c-38.912 113.55022222-145.86311111 189.78133333-266.01244444 189.78133333-120.14933333 0-227.10044445-76.34488889-266.01244445-189.78133333l-6.48533333-19.34222223-20.25244445-3.41333333c-89.88444445-15.58755555-152.91733333-97.39377778-145.408-188.416 7.73688889-91.02222222 83.62666667-160.768 174.99022223-160.99555555 19.00088889 0 34.36088889-15.47377778 34.36088889-34.36088889 0-19.00088889-15.47377778-34.47466667-34.36088889-34.47466667-123.22133333 0-227.328 91.59111111-242.91555556 214.016C-9.55733333 369.43644444999995 68.49422222 484.352 187.73333333 515.072c53.93066667 131.64088889 182.04444445 217.65688889 324.15288889 217.65688889 142.22222222 0 270.336-86.12977778 324.03911111-217.65688889 108.544-27.76177778 184.09244445-125.38311111 184.09244445-237.11288889zM509.38311111 491.52c14.79111111 0.11377778 28.672-7.62311111 36.29511111-20.48l169.18755556-157.696c11.37777778-10.46755555 16.15644445-26.16888889 12.40177777-41.18755555-3.86844445-14.90488889-15.36-26.73777778-30.49244444-30.49244445-14.90488889-3.86844445-30.94755555 0.91022222-41.18755556 12.40177778l-103.19644444 92.61511111v-274.54577778c0-14.90488889-8.07822222-28.78577778-20.93511111-36.40888889a41.93848889 41.93848889 0 0 0-41.984 0c-12.97066667 7.50933333-20.93511111 21.39022222-20.93511111 36.40888889V350.43555555l-119.58044444-94.208c-16.384-12.288-39.25333333-10.92266667-54.04444445 3.29955556s-17.18044445 36.97777778-5.68888889 53.93066667l189.32622222 164.06755555c7.85066667 8.76088889 19.11466667 13.88088889 30.83377778 13.99466667z"  horiz-adv-x="1024" />

    
    <glyph glyph-name="xingzhuang10" unicode="&#58990;" d="M508.394411 853.690261C250.570897 853.690261 41.587843 644.660559 41.587843 386.883693c0-257.823514 208.983055-466.853216 466.806568-466.853217 257.823514 0 466.853216 209.029703 466.853217 466.853217 0 257.776866-209.029703 466.806568-466.853217 466.806568z m381.953851-466.806568c0-29.621482-4.011728-58.17006-10.402505-85.832326-85.552438 2.005864-110.555768 28.315338-88.911094 96.328126 38.344659 120.258552 6.53072 174.696772-128.235361 271.211491-42.496331 30.414498-64.374244 59.896036-69.085693 90.310534 169.84538-38.764491 296.634653-190.463797 296.634653-372.017825z m-381.953851-381.953851a381.907203 381.907203 0 0 0-375.283186 453.232c38.857787-20.011993 78.555237-16.140209 140.550434 1.586032C339.621935 478.593667 357.114937 476.167971 388.695635 430.779464c28.222042-40.583763 24.53685-54.484868-14.367585-99.080359l-6.204185-7.090497c-52.152468-60.175924-65.680389-107.616943-22.484337-173.297332 38.671195-58.729836 79.628142-68.992397 161.821923-64.047708 10.915633 0.653072 15.860321 0.93296 21.644674 1.119552 47.720907 1.352792 73.284013-10.822337 96.794606-65.073965a382.187091 382.187091 0 0 0-117.50632-18.379313z m194.61547 53.178724c-39.184323 87.091822-95.068631 117.413024-176.282805 115.080624-7.043848-0.186592-12.594961-0.46648-24.350257-1.1662-54.67146-3.312008-68.899101 0.23324-85.832326 25.982938-17.259761 26.262826-14.414233 36.198851 15.720377 70.99826l6.017592 6.903905c61.528716 70.485133 75.616413 123.523913 20.10529 203.338646C401.104004 561.533817 347.178912 569.044145 250.291009 541.335231c-50.753028-14.507529-69.645469-15.487137-90.963606 0.746368a382.047147 382.047147 0 0 0 349.067008 226.755944l0.653072-0.046648c0.839664-62.461676 36.711979-119.325592 104.584823-167.97946 108.689848-77.808869 122.031176-100.619743 97.307735-178.195372-38.344659-120.258552 20.944953-190.883629 139.94401-203.338646a383.446587 383.446587 0 0 0-147.87417-161.168851z"  horiz-adv-x="1069" />

    
    <glyph glyph-name="dingdanjuanlian" unicode="&#58991;" d="M802.086381 177.325115L587.640612 392.793948l390.071908 391.89069a55.245504 55.245504 0 0 1 0 77.923442 54.620298 54.620298 0 0 1-77.58242 0L510.115029 470.71739 306.866137 674.93251 528.359686 894.948298S-1.872112 896.994428 0.174018 894.948298v-524.604941l228.655003 227.120406L432.532608 392.793948 42.4607 0.903258a55.245504 55.245504 0 0 1 0-77.923443 54.620298 54.620298 0 0 1 77.582421 0l390.071908 391.833853 213.991072-215.014137-228.257144-226.665711s530.288635-1.989293 528.242505 0V397.795598l-222.005081-220.470483z"  horiz-adv-x="1024" />

    
    <glyph glyph-name="dingdanbiaozhu" unicode="&#58992;" d="M512.055751-127.937544a37.143913 37.143913 0 0 0-37.769615 36.461329v242.601514H164.165748a49.999234 49.999234 0 0 0-45.278031 27.587746 46.643198 46.643198 0 0 0 6.257014 51.307518L268.601007 401.064585V823.014885H207.794204A37.200795 37.200795 0 0 0 170.024589 859.476215c0 20.13621 16.950821 36.46133 37.769615 36.461329h608.523094c20.818793 0 37.769614-16.325119 37.769614-36.461329a37.200795 37.200795 0 0 0-37.769614-36.46133H755.510494V401.064585l143.456277-171.044022a46.643198 46.643198 0 0 0 6.257014-51.307518 49.999234 49.999234 0 0 0-45.278032-27.587746H549.825365v-242.601514A37.143913 37.143913 0 0 0 512.055751-127.937544z m294.70538 351.985502L679.971265 375.24018V823.014885H344.140236v-447.774705l-126.789865-151.192222h589.41076z m-399.709459 197.949184a37.143913 37.143913 0 0 0-37.769614 36.46133V768.521978c0 20.13621 16.950821 36.46133 37.769614 36.461329 20.875675 0 37.826496-16.325119 37.826497-36.461329v-310.063506a37.200795 37.200795 0 0 0-37.826497-36.46133z"  horiz-adv-x="1024" />

    
    <glyph glyph-name="zhongzhi" unicode="&#58989;" d="M570.86103703 460.21594075c23.05896297-14.92764445 37.25842963-40.2925037 38.22933334-67.72053334-0.72817778-28.27757037-16.62672592-54.00651852-41.74885926-67.23508149a75.45135408 75.45135408 0 0 0-79.97819259 0c-23.05896297 14.68491852-37.50115555 39.80705185-38.47205927 67.23508149 0.84954075 28.5202963 16.86945185 54.24924445 41.9915852 67.72053334 24.63668148 14.56355555 55.34151111 14.56355555 79.97819258 0zM44.14577778 664.22708148l53.76379259-23.42305185c41.26340741 69.41961482 99.63899259 127.43111111 169.90814815 168.33042962 110.19757037 66.5069037 242.11911111 86.77451852 367.24432593 56.55514075 124.63976297-29.85528889 232.28871111-108.01303703 299.03834073-217.36106667C1070.75508148 421.50115555 996.23822222 128.77368889000002 767.10494815-7.759644449999996c-230.22554075-134.83425185-527.80752592-61.40965925-666.28266667 164.44681482-8.8594963 14.68491852-16.62672592 30.09801482-23.30168889 45.8752-2.3058963 4.36906667-3.51952592 9.22358518-3.64088889 14.07810371 0 13.1072 7.76722963 24.87940741 19.90352593 29.97665184 8.00995555 3.64088889 17.11217778 3.64088889 25.12213334 0 8.8594963-2.91271111 16.14127408-9.46631111 19.6608-17.96171851 7.28177778-14.19946667 14.44219259-26.45712592 21.48124444-38.83614816 57.64740741-93.69220741 150.00462222-160.92728889 257.04675556-186.89896295 106.67804445-26.94257778 219.66696297-10.43721482 314.20871111 45.8752h1.82044444C856.79217778 123.06962963000001 932.76539259 256.44752592 933.49357037 400.62672592c0.60681482 74.27413333-19.6608 147.21327408-58.49694815 210.56474075C767.71176297 783.28414815 550.47205925 854.76693333 359.56811852 780.8568888899999c-19.6608-8.37404445-38.95751111-17.71899259-57.64740741-28.15620741-58.13285925-34.10299259-106.79940741-81.92-141.99466666-138.83922963l61.8951111-26.94257777c13.34992592-5.82542222 13.1072-24.87940741-0.48545185-30.21937778l-127.55247407-50.24426667c-8.37404445-3.2768-17.96171852 0.84954075-21.23851852 9.22358519l-50.24426666 127.55247407c-5.21860741 13.47128889 8.49540741 26.82121482 21.84533333 20.99579259zM570.86103703 460.21594075c23.05896297-14.92764445 37.25842963-40.2925037 38.22933334-67.72053334-0.72817778-28.27757037-16.62672592-54.00651852-41.74885926-67.23508149a75.45135408 75.45135408 0 0 0-79.97819259 0c-23.05896297 14.68491852-37.50115555 39.80705185-38.47205927 67.23508149 0.84954075 28.5202963 16.86945185 54.24924445 41.9915852 67.72053334 24.63668148 14.56355555 55.34151111 14.56355555 79.97819258 0zM44.14577778 664.22708148l53.76379259-23.42305185c41.26340741 69.41961482 99.63899259 127.43111111 169.90814815 168.33042962 110.19757037 66.5069037 242.11911111 86.77451852 367.24432593 56.55514075 124.63976297-29.85528889 232.28871111-108.01303703 299.03834073-217.36106667C1070.75508148 421.50115555 996.23822222 128.77368889000002 767.10494815-7.759644449999996c-230.22554075-134.83425185-527.80752592-61.40965925-666.28266667 164.44681482-8.8594963 14.68491852-16.62672592 30.09801482-23.30168889 45.8752-2.3058963 4.36906667-3.51952592 9.22358518-3.64088889 14.07810371 0 13.1072 7.76722963 24.87940741 19.90352593 29.97665184 8.00995555 3.64088889 17.11217778 3.64088889 25.12213334 0 8.8594963-2.91271111 16.14127408-9.46631111 19.6608-17.96171851 7.28177778-14.19946667 14.44219259-26.45712592 21.48124444-38.83614816 57.64740741-93.69220741 150.00462222-160.92728889 257.04675556-186.89896295 106.67804445-26.94257778 219.66696297-10.43721482 314.20871111 45.8752h1.82044444C856.79217778 123.06962963000001 932.76539259 256.44752592 933.49357037 400.62672592c0.60681482 74.27413333-19.6608 147.21327408-58.49694815 210.56474075C767.71176297 783.28414815 550.47205925 854.76693333 359.56811852 780.8568888899999c-19.6608-8.37404445-38.95751111-17.71899259-57.64740741-28.15620741-58.13285925-34.10299259-106.79940741-81.92-141.99466666-138.83922963l61.8951111-26.94257777c13.34992592-5.82542222 13.1072-24.87940741-0.48545185-30.21937778l-127.55247407-50.24426667c-8.37404445-3.2768-17.96171852 0.84954075-21.23851852 9.22358519l-50.24426666 127.55247407c-5.21860741 13.47128889 8.49540741 26.82121482 21.84533333 20.99579259z"  horiz-adv-x="1024" />

    
    <glyph glyph-name="sidebar_btn_ai" unicode="&#58988;" d="M807.3216 753.527467c78.711467 0 142.472533-63.761067 142.472533-142.472534v-569.890133a142.472533 142.472533 0 0 0-142.472533-142.472533H284.945067a142.472533 142.472533 0 0 0-142.472534 142.472533V611.054933c0 78.711467 63.761067 142.472533 142.472534 142.472534h522.376533z m0-94.958934H284.945067a47.5136 47.5136 0 0 1-47.104-41.096533l-0.4096-6.417067v-569.890133c0-24.029867 17.885867-43.895467 41.096533-47.035733l6.417067-0.4096h522.376533a47.5136 47.5136 0 0 1 47.104 40.96l0.4096 6.485333V611.054933a47.5136 47.5136 0 0 1-41.096533 47.104l-6.417067 0.4096zM237.431467 563.541333v-474.862933H71.202133A71.202133 71.202133 0 0 0 0 159.880533v332.458667C0 531.6608 31.880533 563.541333 71.202133 563.541333h166.229334zM142.404267 468.650667h-47.445334v-284.945067h47.445334V468.650667zM854.8352 563.541333v-474.862933h166.229333c39.3216 0 71.202133 31.880533 71.202134 71.202133v332.458667c0 39.3216-31.880533 71.202133-71.202134 71.202133h-166.229333z m95.0272-94.890666h47.445333v-284.945067h-47.445333V468.650667zM356.1472 896m47.5136 0l284.8768 0q47.5136 0 47.5136-47.5136l0 0.068267q0-47.5136-47.5136-47.5136l-284.8768 0q-47.5136 0-47.5136 47.5136l0-0.068267q0 47.5136 47.5136 47.5136ZM548.386133 181.4528L474.9312 363.793067 401.408 181.4528c-6.894933-17.2032-27.4432-25.873067-45.8752-19.456-18.432 6.485333-27.716267 25.531733-20.821333 42.734933l107.042133 265.557334a35.976533 35.976533 0 0 0 66.286933 0l107.042134-265.557334c6.894933-17.2032-2.389333-36.2496-20.821334-42.734933-18.432-6.417067-38.912 2.2528-45.8752 19.456zM664.849067 492.3392m35.6352 0l-0.068267 0q35.6352 0 35.6352-35.6352l0-261.188267q0-35.6352-35.6352-35.6352l0.068267 0q-35.6352 0-35.6352 35.6352l0 261.188267q0 35.6352 35.6352 35.6352Z"  horiz-adv-x="1092" />

    
    <glyph glyph-name="shezhi2" unicode="&#58987;" d="M521 497.8l86.7-50c5.3-3.1 8.6-8.8 8.6-14.9v-100.1c0-6.2-3.3-11.8-8.6-14.9l-86.7-50c-5.3-3.1-11.9-3.1-17.2 0l-86.7 50c-5.3 3.1-8.6 8.8-8.6 14.9v100c0 6.2 3.3 11.8 8.6 14.9l86.7 50c5.2 3.2 11.8 3.2 17.2 0.1z m21.3 107.7a60.087 60.087 0 0 1-60 0l-147.9-85.4c-18.6-10.7-30-30.5-30-52v-170.7c0-21.4 11.4-41.2 30-52L482.3 160c18.6-10.7 41.4-10.7 60 0l147.9 85.4c18.6 10.7 30 30.5 30 52V468.2c0 21.4-11.4 41.2-30 52l-147.9 85.3z m-7 187.8l251.1-104c14.7-6.1 26.4-17.8 32.5-32.5l104-251.1c6.1-14.7 6.1-31.2 0-45.9l-104-251.1c-6.1-14.7-17.8-26.4-32.5-32.5l-251.1-104a59.85 59.85 0 0 0-45.9 0l-251.1 104c-14.7 6.1-26.4 17.8-32.5 32.5l-104 251.1a59.85 59.85 0 0 0 0 45.9l104 251.1c6.1 14.7 17.8 26.4 32.5 32.5l251.1 104c14.7 6.1 31.2 6.1 45.9 0zM521 497.8l86.7-50c5.3-3.1 8.6-8.8 8.6-14.9v-100.1c0-6.2-3.3-11.8-8.6-14.9l-86.7-50c-5.3-3.1-11.9-3.1-17.2 0l-86.7 50c-5.3 3.1-8.6 8.8-8.6 14.9v100c0 6.2 3.3 11.8 8.6 14.9l86.7 50c5.2 3.2 11.8 3.2 17.2 0.1z m21.3 107.7a60.087 60.087 0 0 1-60 0l-147.9-85.4c-18.6-10.7-30-30.5-30-52v-170.7c0-21.4 11.4-41.2 30-52L482.3 160c18.6-10.7 41.4-10.7 60 0l147.9 85.4c18.6 10.7 30 30.5 30 52V468.2c0 21.4-11.4 41.2-30 52l-147.9 85.3z m-7 187.8l251.1-104c14.7-6.1 26.4-17.8 32.5-32.5l104-251.1c6.1-14.7 6.1-31.2 0-45.9l-104-251.1c-6.1-14.7-17.8-26.4-32.5-32.5l-251.1-104a59.85 59.85 0 0 0-45.9 0l-251.1 104c-14.7 6.1-26.4 17.8-32.5 32.5l-104 251.1a59.85 59.85 0 0 0 0 45.9l104 251.1c6.1 14.7 17.8 26.4 32.5 32.5l251.1 104c14.7 6.1 31.2 6.1 45.9 0z"  horiz-adv-x="1024" />

    
    <glyph glyph-name="fenbianshuai-jichuban" unicode="&#58985;" d="M383.6 576.2h-63.9V512h-32v96.1h95.9v-31.9z m256-384h63.9v64.1h32v-96.1h-95.9v32z m-4.9 315.1v49.2h49.2v-49.2h-49.2zM585.5 458v49.2h49.2V458h-49.2z m-49.2-49.2V458h49.2v-49.2h-49.2z m-49.2-49.2v49.2h49.2v-49.2h-49.2z m-49.2-49.2v49.2h49.2v-49.2h-49.2z m-49.3-49.2v49.2h49.2v-49.2h-49.2zM339.4 212v49.2h49.2V212h-49.2z m428.2 428.1H255.8v-511.8h511.8V640.1z m64 64v-639.8H191.8V704.1h639.8z"  horiz-adv-x="1024" />

    
    <glyph glyph-name="yingxiangleibie-jichuban" unicode="&#58986;" d="M336 656.2v-16.6h-48v64.6h544v-542.8h-63.9v48H784V656.2H336z m86.1-366.9c0.7 4.1 10.6 16.2 5 22.7-5.7 6.5-15.6 7.3-20.6 8.9-5 1.6-20.9 7.3-22.3 13.8-1.4 6.5-13.5 4-17.7 1.6-4.3-2.4-17.7-10.5-19.2-4.9-1.4 5.7-7.1 9.7-7.8 13.8-0.7 4 5 0 6.4 6.5 1.4 6.5-3.5 8.9-9.2 5.7-5.7-3.2-7.1 3.2-3.6 5.7 3.6 2.4 16.3 14 17.7 10 1.4-4 10.6-1.6 13.5-0.8 2.8 0.8 7.1 3.8 8.5-4.3 1.4-8.1 9.9-17 9.9-13.8 0 3.2 2.8 14.6 0.7 19.4-2.1 4.8-4.3 8.9-4.3 8.9s13.5 0 17 8.9c3.6 8.9 3.6 13.8 4.3 17.8 0.7 4.1 0 9.7-3.5 8.9-3.5-0.8-2.1 9.7 5 8.1 7.1-1.6 2.8-7.3 2.8-7.3s4.3-14.6 7.1-8.1 15.6 17.8 8.5 21c-7.1 3.2-0.7 17-17.7 18.6-17 1.6-23.4-2.4-23.4-2.4l1.4-5.7s1.4-1.6 1.4-4.9c0-3.2-9.9-2.4-9.9-2.4s-2.1 4.8-1.4 8.1c0.7 3.2 2.8 8.9 2.8 8.9l5.7 8.9s2.1 0 6.4-1.6c4.3-1.6 12.1 0.8 12.1 0.8l-3.5 17s-44.4-17.3-70.9-91.4c0-4.1 2.1-11.3 1.4-15.4-0.7-4-1.4-6.5-0.7-10.5s5.7-12.1 5.7-12.1l6.4-8.1s0.7-10.5 4.3-14.6c3.5-4-2.1-8.9-2.1-8.9s-2.8-14.6-2.1-20.2c0.7-5.7 2.8-19.4 5-22.6 2.1-3.2 16.3-10.5 16.3-10.5s7.8-5.7 7.8-9.7c0-4 2.8-9.7 5-13.7 2.1-4 12.8-13 12.1-20.2-0.7-7.3 2.4-7.3 4.5-13.8 2.1-6.5 8-8.4 14.2-9.7 0 0 6.4 21.8 4.3 25.9-2.1 4.1-5.7 12.9-5.7 12.9l-0.9 13.8s2.1 5.7 5.7 8.9c3.5 3.2 5 5.7 7.8 12.1 2.4 6.3 9.1 16 9.8 20z m78.6 148.4s-2.7-8.6-0.8-10.6c2-2 9.8-4.6 7.1-1-2.7 3.5-2.4 5.1-2 8.1 0.4 3 2.4 8.6 0.4 7.6-2-1.1-3.9-2.1-4.7-4.1z m36.9-2.5l-3.1-6.7c-0.8-4.2 5.9-4.3 5.9-4.3s8.1-0.6 11.6 10.1c-5.2 4.5-11.2 8-12.8 7.4-0.4-2.7-1.6-6.5-1.6-6.5z m52.8-99.4l-10.9 13.3h18.2s2.5-1.2 5.5-2.6c8.6 31.2-20.6 83.4-29 85-0.5 0.5-0.8 0.6-1 0 0.3 0.1 0.7 0.1 1 0 3.3-3.5 12.6-29.4 12.6-29.4l-14.5 1.9s-5.5 11.4-12.7 7.6c-7.3-3.8-1.8-5.7-12.7-7.6-10.9-1.9-15.9 14.9-23.2 9.2-7.3-5.7-11.4 1-13.2-6.6-1.8-7.6 1.1-15.9 1.1-15.9l-14.1-0.2c-9.5-5-4.6-21.1-4.6-21.1s15.5-5.9 24.5-0.2c9.1 5.7 14.8 15.9 14.8 15.9l16.8-21.5c6.1-3.6 8.6 10.2 8.6 10.2-7.5 12.1 0 17.1 0 17.1l16.4-7.6 10.9-13.2-1.8-9.5-20-7.6s-3.6-23.2-30.9-4.3c0 0-41.8 7.6-41.8-5.7s-2.9-9-1.8-26.1c0 0-7.5-41.5 12.3-40.1 19.8 1.4 11.6 3.9 31.1 9.1 18.2 9.5 20.5-10.4 20.5-10.4l-1.1-19.2-4.4-11.4s-3.6-6.6 3.6-14.2c0 0 47.6 38.2 52.5 97.6-7.4-0.6-12.7 7.5-12.7 7.5z m-107.7 84.8c2.1-3.6 9.3-9.2 10-6.4 0.7 2.8 4.3 9.9-5.2 12.1 0 0-6.8-2.2-4.8-5.7zM467 462.5c0.7 7.1 7 4.7 11.1 11.8-1.7 3.3-34.4 6.2-48.9-7.8-0.2-2.5-0.3-4.7-0.5-6.1-0.7-7.1 8.9-22 18.4-32.7 9.5-10.7 10 11.4 8.6 14.2-1.2 2.8 10.6 13.5 11.3 20.6zM288 336.3c0 97.2 78.8 176 176 176s176-78.8 176-176-78.8-176-176-176-176 78.8-176 176z m-32-208h416v416H256v-416z m334-64H192V608.2h544v-544H590zM336 656.2v-16.6h-48v64.6h544v-542.8h-63.9v48H784V656.2H336z m86.1-366.9c0.7 4.1 10.6 16.2 5 22.7-5.7 6.5-15.6 7.3-20.6 8.9-5 1.6-20.9 7.3-22.3 13.8-1.4 6.5-13.5 4-17.7 1.6-4.3-2.4-17.7-10.5-19.2-4.9-1.4 5.7-7.1 9.7-7.8 13.8-0.7 4 5 0 6.4 6.5 1.4 6.5-3.5 8.9-9.2 5.7-5.7-3.2-7.1 3.2-3.6 5.7 3.6 2.4 16.3 14 17.7 10 1.4-4 10.6-1.6 13.5-0.8 2.8 0.8 7.1 3.8 8.5-4.3 1.4-8.1 9.9-17 9.9-13.8 0 3.2 2.8 14.6 0.7 19.4-2.1 4.8-4.3 8.9-4.3 8.9s13.5 0 17 8.9c3.6 8.9 3.6 13.8 4.3 17.8 0.7 4.1 0 9.7-3.5 8.9-3.5-0.8-2.1 9.7 5 8.1 7.1-1.6 2.8-7.3 2.8-7.3s4.3-14.6 7.1-8.1 15.6 17.8 8.5 21c-7.1 3.2-0.7 17-17.7 18.6-17 1.6-23.4-2.4-23.4-2.4l1.4-5.7s1.4-1.6 1.4-4.9c0-3.2-9.9-2.4-9.9-2.4s-2.1 4.8-1.4 8.1c0.7 3.2 2.8 8.9 2.8 8.9l5.7 8.9s2.1 0 6.4-1.6c4.3-1.6 12.1 0.8 12.1 0.8l-3.5 17s-44.4-17.3-70.9-91.4c0-4.1 2.1-11.3 1.4-15.4-0.7-4-1.4-6.5-0.7-10.5s5.7-12.1 5.7-12.1l6.4-8.1s0.7-10.5 4.3-14.6c3.5-4-2.1-8.9-2.1-8.9s-2.8-14.6-2.1-20.2c0.7-5.7 2.8-19.4 5-22.6 2.1-3.2 16.3-10.5 16.3-10.5s7.8-5.7 7.8-9.7c0-4 2.8-9.7 5-13.7 2.1-4 12.8-13 12.1-20.2-0.7-7.3 2.4-7.3 4.5-13.8 2.1-6.5 8-8.4 14.2-9.7 0 0 6.4 21.8 4.3 25.9-2.1 4.1-5.7 12.9-5.7 12.9l-0.9 13.8s2.1 5.7 5.7 8.9c3.5 3.2 5 5.7 7.8 12.1 2.4 6.3 9.1 16 9.8 20z m78.6 148.4s-2.7-8.6-0.8-10.6c2-2 9.8-4.6 7.1-1-2.7 3.5-2.4 5.1-2 8.1 0.4 3 2.4 8.6 0.4 7.6-2-1.1-3.9-2.1-4.7-4.1z m36.9-2.5l-3.1-6.7c-0.8-4.2 5.9-4.3 5.9-4.3s8.1-0.6 11.6 10.1c-5.2 4.5-11.2 8-12.8 7.4-0.4-2.7-1.6-6.5-1.6-6.5z m52.8-99.4l-10.9 13.3h18.2s2.5-1.2 5.5-2.6c8.6 31.2-20.6 83.4-29 85-0.5 0.5-0.8 0.6-1 0 0.3 0.1 0.7 0.1 1 0 3.3-3.5 12.6-29.4 12.6-29.4l-14.5 1.9s-5.5 11.4-12.7 7.6c-7.3-3.8-1.8-5.7-12.7-7.6-10.9-1.9-15.9 14.9-23.2 9.2-7.3-5.7-11.4 1-13.2-6.6-1.8-7.6 1.1-15.9 1.1-15.9l-14.1-0.2c-9.5-5-4.6-21.1-4.6-21.1s15.5-5.9 24.5-0.2c9.1 5.7 14.8 15.9 14.8 15.9l16.8-21.5c6.1-3.6 8.6 10.2 8.6 10.2-7.5 12.1 0 17.1 0 17.1l16.4-7.6 10.9-13.2-1.8-9.5-20-7.6s-3.6-23.2-30.9-4.3c0 0-41.8 7.6-41.8-5.7s-2.9-9-1.8-26.1c0 0-7.5-41.5 12.3-40.1 19.8 1.4 11.6 3.9 31.1 9.1 18.2 9.5 20.5-10.4 20.5-10.4l-1.1-19.2-4.4-11.4s-3.6-6.6 3.6-14.2c0 0 47.6 38.2 52.5 97.6-7.4-0.6-12.7 7.5-12.7 7.5z m-107.7 84.8c2.1-3.6 9.3-9.2 10-6.4 0.7 2.8 4.3 9.9-5.2 12.1 0 0-6.8-2.2-4.8-5.7zM467 462.5c0.7 7.1 7 4.7 11.1 11.8-1.7 3.3-34.4 6.2-48.9-7.8-0.2-2.5-0.3-4.7-0.5-6.1-0.7-7.1 8.9-22 18.4-32.7 9.5-10.7 10 11.4 8.6 14.2-1.2 2.8 10.6 13.5 11.3 20.6zM288 336.3c0 97.2 78.8 176 176 176s176-78.8 176-176-78.8-176-176-176-176 78.8-176 176z m-32-208h416v416H256v-416z m334-64H192V608.2h544v-544H590z"  horiz-adv-x="1024" />

    
    <glyph glyph-name="xinjian-houtai" unicode="&#58984;" d="M512 886.120365c-277.29738555 0-502.120365-225.13719743-502.120365-502.120365 0-277.14027654 224.82297945-502.120365 502.120365-502.120365 133.22843226 0 260.80094052 52.7886241 355.06634071 146.8969153 94.10829119 93.95118219 147.05402429 221.68079945 147.05402429 355.06634069 0 277.45449454-224.98008846 502.27747399-502.120365 502.27747401zM781.91326254 341.58056992c-15.08246403-25.76587604-42.73364807-41.31966706-72.58435816-41.79099409h-113.43269821v-127.25829025c0-30.00781905-15.86800901-57.50189412-41.79099407-72.58435813-25.92298506-15.08246403-57.97322111-15.08246403-83.89620619-0.15710902-25.76587604 15.08246403-41.31966706 42.73364807-41.79099408 72.58435816v127.41539924h-113.43269821c-30.16492806 0-57.50189412 15.71090003-72.58435816 41.79099409-15.08246403 25.92298506-15.08246403 57.97322111 0 83.89620617 14.92535503 25.76587604 42.57653909 41.31966706 72.42724914 41.79099408h113.58980723v99.44999718c0 30.16492806 15.71090003 57.50189412 41.79099408 72.58435816 25.92298506 15.08246403 57.97322111 15.08246403 83.89620619 0 25.76587604-14.92535503 41.31966706-42.57653909 41.79099407-72.42724914V467.26777017h113.27558923c30.00781905 0 57.50189412-15.86800901 72.58435814-41.79099408 15.08246403-25.92298506 15.08246403-57.97322111 0.157109-83.89620617z"  horiz-adv-x="1024" />

    
    <glyph glyph-name="tianjia" unicode="&#59048;" d="M514.44224 880.84992c-275.31776 0-499.30752-223.9744-499.30752-499.29728 0-275.34336 223.98976-499.31264 499.30752-499.31264 275.33312 0 499.36384 223.96928 499.36384 499.31264C1013.80608 656.87552 789.77536 880.84992 514.44224 880.84992zM788.18816 320.5376l-212.75136 0 0-212.80768L453.43744 107.72992l0 212.80256-212.7872 0L240.65024 442.55232l212.78208 0L453.43232 655.3088l121.99936 0 0-212.75648 212.7616 0L788.19328 320.5376z"  horiz-adv-x="1024" />

    
    <glyph glyph-name="toumingdu" unicode="&#58982;" d="M418.13504 843.94496c211.1232 0 382.29504-171.17184 382.29504-382.29504s-171.17184-382.29504-382.29504-382.29504S35.84 250.53184 35.84 461.65504s171.17184 382.28992 382.29504 382.28992zM609.28 700.58496c211.1232 0 382.29504-171.17184 382.29504-382.29504S820.4032-64 609.28-64s-382.29504 171.17184-382.29504 382.29504 171.17184 382.28992 382.29504 382.28992z"  horiz-adv-x="1024" />

    
    <glyph glyph-name="juanlian" unicode="&#58983;" d="M648.04352 408.38144c0 56.92928-36.54656 104.87808-87.28576 122.91072V844.8h-87.28576v-313.50784c-50.7392-18.03264-87.28576-65.98144-87.28576-122.91072s36.54656-104.87808 87.28576-122.91072v-357.15072h87.28576v357.15072c50.74432 18.03264 87.28576 65.98144 87.28576 122.91072z"  horiz-adv-x="1024" />

    
    <glyph glyph-name="shezhi-houtai" unicode="&#58980;" d="M988.82581594 536.5528393c-42.89075709 1.72819901-81.38246215 25.13744005-103.22061321 62.05805513-21.68104205 37.39194207-22.46658704 83.42487916-1.72819899 121.60236624 4.24194301 8.326777 4.24194301 18.22464404-0.15710901 26.55142105a27.17985706 27.17985706 0 0 1-9.89786701 9.89786703l-219.00994643 126.62985425c-4.24194301 2.35663501-8.95521301 3.61350702-13.66848304 3.61350701-9.42654002 0.15710901-18.22464404-4.71327001-22.93791403-12.72582903-23.09502305-37.23483307-62.68649111-59.38720211-106.20568422-59.38720211-43.67630209 0-83.26777017 21.99526005-106.20568422 59.38720211-7.69834101 12.56872002-24.03767705 16.65355405-36.76350606 9.11232202l-219.16705545-126.62985425c-12.72582902-7.38412301-17.28199003-23.72345905-10.054976-36.60639708 20.58127904-38.02037807 19.95284304-84.05331517-1.88530801-121.60236624-21.20971504-37.07772405-60.01563811-60.64407412-102.7492862-62.05805513-14.61113702-0.628436-26.08009405-12.56872002-26.08009407-26.86563906v-252.00283649c0-4.87037901 1.25687199-9.58364903 3.61350701-13.66848303l0.628436-1.09976298c4.71327001-8.01255901 13.04004703-13.19715602 22.46658705-13.66848304 42.41943008-1.72819901 81.06824416-25.29454905 102.27795921-62.05805513 21.05260603-36.60639708 22.30947806-81.38246215 3.14218-119.08862224-6.441469-12.88293803-1.885308-28.59383805 10.52630301-35.82085207l219.16705544-126.78696326c4.24194301-2.35663501 8.95521301-3.61350702 13.82559204-3.77061599 9.11232202 0 17.75331703 4.556161 22.62369604 12.41161103 22.93791404 35.50663407 62.05805513 56.55924012 104.63459421 56.5592401 42.1052121 0.15710901 81.53957117-21.20971504 104.47748521-56.5592401 5.02748801-7.69834101 13.51137403-12.25450203 22.62369604-12.41161103h0.157109c4.87037901 0 9.58364903 1.41398101 13.66848303 3.77061599l219.32416445 126.78696326c12.56872002 7.22701402 17.12488105 22.93791404 10.52630301 35.82085207-19.32440705 37.70616007-18.22464404 82.63933418 3.14218 119.08862224 21.20971504 36.76350606 59.7014201 60.32985613 102.27795921 62.05805513 9.42654002 0.31421799 17.91042605 5.49881501 22.30947803 13.66848304l0.78554502 1.25687199c2.35663501 4.24194301 3.45639799 8.95521301 3.45639799 13.66848302V509.37298226c0.15710901 14.61113702-11.31184801 26.70853004-25.92298505 27.17985704zM512 164.51872658000002c-121.28814825 0-219.48127342 98.35023421-219.48127342 219.48127342S390.71185175 603.48127342 512 603.48127342 731.48127342 505.28814825 731.48127342 384 633.28814825 164.51872658000002 512 164.51872658000002zM512 384m-125.68720026 0a125.68720026 125.68720026 0 1 1 251.37440052 0 125.68720026 125.68720026 0 1 1-251.37440052 0Z"  horiz-adv-x="1024" />

    
    <glyph glyph-name="tupianicon-houtai" unicode="&#58979;" d="M827.00354563 572.84501838L795.42463655 541.10900032l40.69123109-40.69123109 31.57890906 31.73601807-40.69123107 40.69123108z m-198.5857764 135.58506726l40.69123109-40.69123108 31.57890906 31.57890906-40.69123109 40.69123109-31.57890906-31.57890907z m173.60544535 28.75094707l-38.17748707-38.17748708-88.13814918-88.13814918 63.15781812-63.15781812 88.13814918 88.13814918 38.17748708 38.17748707-63.15781813 63.15781813z m128.82938024-205.18435442L836.11586764 437.41706012l-72.27014013 72.27014014-24.98033106-24.98033107-47.28980909 47.2898091-23.25213204-23.25213205-31.57890908 31.57890908 23.25213205 23.25213204-47.44691809 47.28980909 24.98033104 24.98033106-72.27014014 72.27014013 94.73672719 94.57961819 72.27014015-72.27014014 69.75639614 69.75639614 126.31563624-126.15852725-69.75639613-69.75639614 72.27014013-72.27014015z m-402.04193179-19.63862503c0-61.42961913 50.11777109-111.54739022 111.54739023-111.54739023v-44.61895609c-86.09573217 0-156.16634629 70.07061413-156.16634632 156.32345531h44.61895609z m89.23791217 22.30947804c0-24.66611305 19.95284304-44.61895609 44.6189561-44.6189561v-44.61895607c-49.1751171 0-89.23791218 40.06279507-89.23791217 89.23791217h44.61895607zM134.93839925 886.74880099h754.1232015c69.44217814 0 125.68720026-56.24502211 125.68720024-125.68720024v-754.1232015c0-69.44217814-56.24502211-125.68720026-125.68720024-125.68720024H134.93839925c-69.44217814 0-125.68720026 56.24502211-125.68720024 125.68720024V761.06160075c0 69.44217814 56.24502211 125.68720026 125.68720024 125.68720024z m-30.32203706-957.89357489c0.31421799 2.670853 0.47132701 4.87037901 0.628436 6.59857803 0.31421799 3.61350702-0.94265401 8.79810401-3.45639801 15.55379102 1.41398101 0.78554501 3.14217999 2.82796201 5.81303303 5.97014201 2.51374401 2.98507101 4.71327001 5.34170603 6.44146901 6.75568701 0.78554501 0.31421799 1.885308 0.78554501 2.82796199 0.94265401 1.09976302 0.31421799 2.042417 0.31421799 2.82796202 0s1.885308 0.15710901 2.51374401 0.94265399c0.78554501 0.78554501 1.41398101 2.19952601 1.885308 3.92772501-0.31421799 0.31421799-1.41398101 1.09976302-2.51374402 1.88530799-1.41398101 1.41398101-2.19952601 1.885308-2.513744 1.88530802 2.98507101-1.41398101 8.95521301-0.94265401 18.22464403 0.94265399 9.11232202 1.885308 15.08246403 1.57108999 17.43909903-0.94265399 6.441469-4.71327001 10.99763002-4.24194301 14.13981005 1.41398101 0 0.31421799-0.47132701 2.51374401-1.57109003 5.97014202-1.09976302 3.61350702-1.25687199 6.441469-0.31421799 8.640995 2.19952601-11.62606602 8.326777-13.35426503 18.53886206-5.81303301 1.41398101-1.41398101 4.556161-2.35663501 9.89786699-3.14218s8.95521301-1.885308 11.15473903-3.14218002c1.41398101-0.78554501 2.82796201-2.042417 4.39905202-3.45639801 1.885308-1.41398101 2.82796201-2.51374401 3.45639801-2.827962 0.78554501-0.31421799 1.885308-0.31421799 3.14218 0.31421801 1.41398101 0.78554501 3.29928901 2.042417 5.34170601 4.084834 4.24194301-5.81303301 6.91279601-10.99763002 7.54123202-15.23957304 4.71327001-17.12488105 8.64099502-26.39431205 12.09739302-27.96540204 2.98507101-1.41398101 5.34170603-1.885308 6.91279601-1.41398101 1.885308 0.31421799 2.51374401 2.51374401 2.82796201 5.97014203 0.31421799 3.61350702 0.31421799 6.59857803 0 8.955213s-0.47132701 5.02748801-0.94265399 7.85545003l-0.78554501 5.18459699v11.62606604l-0.78554502 5.18459701c-6.441469 1.41398101-10.21208501 3.92772502-11.94028401 7.54123201-1.41398101 3.92772502-1.25687199 7.69834101 0.942654 11.94028401 2.19952601 4.08483399 5.34170603 7.85545002 9.58364902 11.94028403 0.31421799 0.31421799 2.19952601 1.25687199 5.18459699 2.356635s6.28436002 2.51374401 9.89786703 4.24194301c3.61350702 1.885308 6.441469 3.29928901 7.85545003 5.18459701 8.95521301 8.01255901 12.09739302 15.55379103 9.58364901 22.30947805 2.98507101 0 5.34170603 1.885308 6.91279601 5.813033-0.31421799 0-1.41398101 0.78554501-3.14218 1.885308-1.885308 1.41398101-3.29928901 2.35663501-4.71327001 3.14218003-1.41398101 0.78554501-2.51374401 1.41398101-2.82796201 1.413981 3.92772502 2.19952601 4.24194301 5.49881501 1.41398101 10.21208502 2.19952601 1.41398101 3.61350702 3.61350702 4.71327 6.912796 1.09976302 3.29928901 2.51374401 5.49881501 4.71327002 6.44146901 3.92772502-5.18459701 8.326777-5.49881501 13.35426502-1.41398098 3.29928901 3.29928901 3.61350702 6.91279601 0.785545 10.21208501 2.19952601 2.98507101 6.441469 5.34170603 13.04004702 6.75568702 6.59857803 1.41398101 10.52630302 3.45639799 11.94028403 5.970142 2.98507101-0.78554501 4.71327001-0.31421799 5.18459702 1.413981 0.31421799 1.885308 0.78554501 4.24194301 0.78554499 7.54123202s0.78554501 5.81303301 1.88530802 7.54123202c1.885308 2.19952601 4.71327001 4.08483399 9.58364901 5.81303302 4.71327001 1.885308 7.54123201 2.82796201 8.32677702 3.14217999l10.84052102 6.91279601c1.41398101 1.885308 1.41398101 2.51374401 0 2.51374401 7.54123201-0.78554501 14.13981003 1.41398101 19.63862504 6.91279602 4.24194301 4.71327001 2.98507101 8.95521301-3.92772502 12.72582902 1.41398101 2.51374401 0.78554501 4.556161-1.885308 5.97014203-2.51374401 1.41398101-5.81303301 2.51374401-9.58364901 3.45639798 1.41398101 0.31421799 3.61350702 0.47132701 7.541232 0.31421801 3.61350702-0.31421799 5.81303301 0.15710901 6.75568702 0.94265401 6.441469 4.24194301 4.71327001 7.54123201-4.399052 10.21208501-8.64099502 4.87037901-17.75331703 2.35663501-28.75094705-5.027488-0.78554501-0.31421799-2.82796201-2.51374401-5.97014202-5.97014202-3.14217999-3.61350702-5.97014202-5.65592402-8.64099502-5.97014201 0.78554501 0 1.885308 1.09976302 2.827962 3.14218001 1.09976302 2.19952601 2.19952601 4.39905201 3.14218002 6.91279601 1.09976302 2.51374401 1.885308 4.08483399 2.356635 4.39905202 2.51374401 2.98507101 7.38412301 6.28436002 14.13981001 9.58364901 5.81303301 2.51374401 17.12488105 5.18459701 32.99289008 7.54123201 14.45402802 3.29928901 25.29454905 1.09976302 32.52156306-6.912796-0.78554501 0.78554501 1.25687199 3.61350702 5.97014201 8.32677701s7.85545002 7.38412301 9.11232202 7.54123201c1.41398101 0.78554501 4.39905201 1.885308 9.58364903 2.827962 5.18459701 0.94265401 8.326777 2.51374401 9.583649 4.71327001l1.41398102 14.13981003c-5.18459701-0.31421799-8.79810401 1.09976302-11.15473903 4.399052-2.35663501 3.29928901-3.61350702 7.85545002-4.084834 13.35426504 0-0.78554501-1.41398101-2.51374401-3.92772501-5.18459701 0 2.98507101-0.94265401 4.71327001-2.82796201 5.18459701-1.885308 0.31421799-4.39905201 0.31421799-7.54123201-0.785545-2.98507101-0.78554501-4.71327001-1.09976302-5.81303302-0.785545-4.24194301 1.41398101-7.54123201 2.82796201-9.58364901 4.71327001-2.19952601 1.885308-3.92772502 5.34170603-5.18459702 10.52630302-1.25687199 5.18459701-2.19952601 8.326777-2.51374401 9.58364901-0.78554501 2.19952601-2.82796201 4.39905201-5.970142 6.91279601-3.14217999 2.51374401-5.18459701 4.71327001-5.97014203 6.44146904-0.31421799 0.78554501-0.94265401 2.042417-1.57108998 3.45639798-0.78554501 1.41398101-1.41398101 2.82796201-1.885308 4.08483403-0.78554501 1.41398101-1.41398101 2.51374401-2.51374402 3.45639799-0.94265401 0.94265401-2.35663501 1.57108999-3.45639801 1.57109001-1.41398101 0-2.82796201-1.09976302-4.399052-3.14218-1.885308-2.19952601-3.29928901-4.24194301-4.71327001-6.44146903-1.41398101-2.19952601-2.51374401-3.14217999-2.827962-3.14218001-1.41398101 0.78554501-2.51374401 1.25687199-3.92772502 0.94265401-1.41398101-0.31421799-2.35663501-0.31421799-2.82796201-0.78554498-0.78554501-0.31421799-1.57108999-0.78554501-2.827962-1.88530802-1.41398101-1.09976302-2.35663501-1.885308-3.14218-2.356635-1.41398101-0.78554501-2.98507101-1.41398101-5.34170601-1.88530801-2.35663501-0.31421799-4.24194301-0.78554501-5.34170601-1.41398102 6.441469 2.19952601 6.28436002 4.39905201-0.785545 6.91279604-4.24194301 1.885308-7.54123201 2.35663501-10.212085 1.885308 3.92772502 1.885308 5.34170603 4.24194301 4.71326999 7.54123201-0.78554501 3.29928901-2.51374401 6.441469-5.34170602 8.95521302h3.14218001c-0.31421799 1.885308-2.35663501 3.45639799-5.341706 5.341706-3.14217999 1.885308-6.91279601 3.61350702-11.15473903 5.34170601-4.24194301 1.885308-6.91279601 2.98507101-8.32677702 3.92772503-3.29928901 2.19952601-10.68341202 4.24194301-21.83815104 5.97014199-10.99763002 1.885308-18.06753504 2.042417-21.05260604 0.31421802-2.19952601-2.51374401-2.98507101-4.71327001-2.827962-6.75568703 0.31421799-1.885308 1.09976302-4.71327001 2.513744-8.95521301 1.41398101-4.08483399 2.35663501-6.75568702 2.35663501-7.85545002 0.31421799-2.51374401-0.78554501-5.34170603-3.45639801-8.32677702-2.82796201-2.98507101-4.24194301-5.49881501-4.24194301-7.54123203 0-2.98507101 2.98507101-6.441469 8.95521301-9.89786701 5.81303301-3.61350702 8.01255901-8.01255901 6.44146902-13.51137401-1.41398101-3.29928901-4.71327001-6.91279601-10.21208504-10.21208503-5.49881501-3.29928901-8.95521301-5.81303301-10.21208499-7.54123201-2.19952601-3.29928901-2.51374401-7.54123201-0.94265403-11.94028402 1.41398101-4.39905201 3.61350702-7.85545002 6.75568702-10.52630304 0.78554501-0.78554501 1.25687199-1.885308 0.94265401-2.51374399-0.31421799-0.78554501-0.94265401-1.885308-2.35663502-2.82796201-1.41398101-1.09976302-2.51374401-1.885308-3.45639799-2.51374401-1.09976302-0.78554501-2.51374401-1.41398101-4.08483402-2.35663499l-1.88530799-1.41398101c-4.71327001-2.19952601-8.95521301-0.78554501-13.04004704 3.92772502-4.08483399 4.71327001-6.91279601 10.21208501-8.64099502 16.65355402-2.98507101 10.68341202-6.441469 17.12488105-10.212085 19.16729804-9.74075802 3.29928901-16.02511803 3.14217999-18.53886205-0.78554501-2.19952601 5.49881501-10.84052103 10.99763002-26.23720305 16.65355404-10.68341202 3.92772502-22.93791404 4.71327001-37.07772407 2.51374401 2.51374401 0.31421799 2.51374401 3.61350702 0 9.58364901-2.98507101 6.441469-6.91279601 8.95521301-12.09739302 7.541232 1.41398101 2.51374401 2.19952601 6.441469 2.513744 11.15473904 0.31421799 4.71327001 0.78554501 7.69834101 0.78554499 8.64099501 1.41398101 5.49881501 3.92772502 10.52630302 7.54123201 14.61113704 0.31421799 0.31421799 1.885308 2.35663501 4.39905202 5.34170601 2.51374401 3.14217999 4.556161 5.97014202 5.97014203 8.64099502 1.41398101 2.51374401 1.57108999 3.92772502 0.31421801 3.927725 14.92535503-1.885308 25.45165805 0.78554501 31.89312704 6.91279602 2.19952601 2.19952601 4.556161 5.81303301 7.54123202 10.84052104 2.82796201 5.18459701 5.02748801 8.64099502 6.75568701 10.840521 3.92772502 2.51374401 6.91279601 3.61350702 8.95521303 3.45639802 2.19952601-0.31421799 5.18459701-1.41398101 9.112322-3.45639802 4.08483399-2.19952601 7.06990501-3.14217999 9.11232203-3.14218001 5.81303301-0.31421799 9.11232202 1.885308 9.89786701 6.91279603 0.78554501 5.18459701-0.94265401 9.42654002-4.71327002 12.72582902 5.18459701-0.31421799 5.81303301 3.14217999 1.88530803 10.84052103-1.885308 2.98507101-3.29928901 4.71327001-5.18459703 5.81303299-5.18459701 1.885308-10.84052103 0.78554501-17.28199001-3.14218001-3.29928901-1.885308-2.98507101-3.29928901 1.413981-5.18459701-0.31421799 0.31421799-2.51374401-1.885308-5.97014203-6.75568701-3.61350702-4.71327001-7.06990501-8.64099502-10.52630303-11.15473902-3.29928901-2.51374401-6.91279601-1.41398101-10.21208501 3.14218001-0.31421799 0.31421799-1.57108999 3.29928901-3.456398 8.48388602-1.885308 5.34170603-3.92772502 8.01255901-5.97014202 8.64099501-3.29928901 0-6.91279601-3.14217999-10.21208502-9.58364902 1.41398101 3.29928901-1.09976302 6.59857803-6.91279601 9.58364902-5.81303301 2.98507101-10.99763002 4.71327001-15.23957303 5.18459701 8.01255901 5.18459701 6.441469 10.84052103-5.18459701 17.28199004-2.98507101 1.885308-7.54123201 2.82796201-13.04004702 3.14218002-5.81303301 0.31421799-9.89786702-0.31421799-12.41161103-2.51374402-2.19952601-2.98507101-3.29928901-5.34170603-3.45639801-7.54123201-0.31421799-1.885308 0.78554501-3.61350702 3.14218001-5.18459702 2.35663501-1.41398101 4.556161-2.51374401 6.75568701-3.45639799 2.19952601-0.78554501 4.556161-1.885308 7.54123203-2.513744 2.82796201-0.78554501 4.556161-1.41398101 5.34170599-1.88530803 5.81303301-4.24194301 7.54123201-7.38412301 5.18459701-8.95521301-0.78554501-0.31421799-2.51374401-1.25687199-5.34170599-2.356635-2.82796201-1.09976302-5.34170603-2.042417-7.54123204-2.82796201s-3.29928901-1.885308-3.92772499-2.51374401c-1.41398101-1.885308-1.41398101-4.71327001 0-8.95521301s0.78554501-7.38412301-1.41398101-8.95521302c-2.19952601 2.19952601-4.08483399 5.81303301-5.81303301 11.15473901-1.885308 5.34170603-3.14217999 8.79810401-4.39905202 10.52630302 2.98507101-3.92772502-2.35663501-5.18459701-16.02511801-3.92772499l-6.44146903 0.785545c-1.885308 0-5.18459701-0.31421799-10.212085-1.41398101-5.18459701-0.78554501-9.58364903-1.09976302-13.04004704-0.78554499-3.61350702 0.31421799-6.441469 2.19952601-8.64099502 5.184597-1.885308 3.29928901-1.885308 7.54123201 0 12.72582901 0.31421799 1.885308 1.41398101 2.19952601 2.51374399 1.41398101-1.72819901 1.25687199-3.770616 3.14217999-6.441469 5.49881502V6.938399249999975c0.628436-35.50663407 22.78080506-65.98578013 54.04549611-78.08317315z m513.90354003-5.65592401H889.06160075c46.3471551 0 83.73909715 37.54905107 83.73909716 83.73909716V761.06160075c0 46.3471551-37.54905107 83.73909715-83.73909716 83.73909716H134.93839925c-46.3471551 0-83.73909715-37.54905107-83.73909716-83.73909716v-338.56989568c40.06279507 11.62606602 82.01089817 17.43909904 125.68720026 17.43909904 81.06824416 0 155.69501932-19.95284304 224.35165242-60.0156381 68.34241515-40.06279507 122.54502023-94.10829119 162.60781534-162.60781533 39.90568608-68.34241515 60.01563811-143.28340828 60.01563811-224.35165246-0.15710901-23.72345905-1.885308-46.97559108-5.341706-69.75639613z"  horiz-adv-x="1024" />

    
    <glyph glyph-name="yichu-houtai" unicode="&#58981;" d="M709.1717954 467.42487916h-394.3435908c-29.85071007-0.47132701-57.50189412-16.02511803-72.42724914-41.79099409-15.08246403-25.92298506-15.08246403-57.97322111 0-83.89620615 15.08246403-26.08009405 42.41943008-41.79099409 72.58435816-41.79099409h394.34359076c29.85071007 0.47132701 57.50189412 16.02511803 72.58435816 41.79099409 14.92535503 25.92298506 14.92535503 57.97322111-0.157109 83.89620615s-42.57653909 41.79099409-72.58435814 41.79099409zM512 886.27747399c277.14027654 0 502.120365-224.82297945 502.120365-502.27747399 0-133.38554126-52.9457331-261.11515853-147.05402429-355.06634071-94.26540019-94.10829119-221.83790844-146.89691529-355.06634071-146.89691529-277.29738555 0-502.120365 224.98008846-502.120365 502.12036501 0 276.98316754 224.82297945 502.120365 502.120365 502.12036498z"  horiz-adv-x="1024" />

    
    <glyph glyph-name="yingxiangleixing" unicode="&#58978;" d="M863.9 320c0-106-85.9-191.9-191.9-191.9H320.1c-88.3 0-160 71.6-160 160 0 65 39.1 122.2 96.8 147C266.6 549.9 362.8 640 480 640c87.9 0 166.1-51.1 202.5-128.2 101.1-5.6 181.4-89.3 181.4-191.8zM320.1 192.1H672c70.7 0 128 57.3 128 128s-57.3 128-128 128c-2.9 0-5.8-0.1-8.7-0.3l-24.3-1.6-8 22.8c-22.3 63.5-82.5 106.9-151 106.9-88.3 0-160-71.6-160-160v-3.4l0.5-25.3-24.5-6.3c-42-10.8-72-48.9-72-93 0.1-52.9 43.1-95.8 96.1-95.8z"  horiz-adv-x="1024" />

    
    <glyph glyph-name="tucengliebiao" unicode="&#58977;" d="M453.8 442.2v58.2h232.9v-58.2H453.8z m0-116.4V384h232.9v-58.2H453.8zM250 354.9v-203.8c0-16.1 13-29.1 29.1-29.1s29.1 13 29.1 29.1V354.9H250z m58.2 58.2V704.2h524v-553.1c0-48.2-39.1-87.3-87.3-87.3H279.1c-48.2 0-87.3 39.1-87.3 87.3v262h116.4zM366.4 646v-494.9c0-10.2-1.8-20-5-29.1h383.4c16.1 0 29.1 13 29.1 29.1V646H366.4z"  horiz-adv-x="1024" />

    
    <glyph glyph-name="baocunjiansuo" unicode="&#58976;" d="M470.1 509.7H302.5v41.9h167.6v-41.9zM281.5 614.5v-460.9h460.9V471.9l-114 142.5H281.5z m-62.8 62.8h440L805.3 494v-403.3H218.7V677.3zM533 279.2c46.3 0 83.8 37.5 83.8 83.8s-37.5 83.8-83.8 83.8-83.8-37.5-83.8-83.8 37.5-83.8 83.8-83.8z m74.9-17.1c-20.9-15.6-46.9-24.8-75-24.8-69.4 0-125.7 56.3-125.7 125.7S463.5 488.8 533 488.8 658.7 432.5 658.7 363c0-28.1-9.2-54-24.8-75l41.6-41.6-25.9-25.9-41.7 41.6z"  horiz-adv-x="1024" />

    
    <glyph glyph-name="huhuan" unicode="&#58971;" d="M408 252.1h350c0-35.1-28.5-63.6-63.6-63.6H408v-127.3c0-3.4-1.1-6.8-3.2-9.5-5.3-7-15.2-8.5-22.3-3.2l-212.1 159c-1.2 0.9-2.3 2-3.2 3.2-5.3 7-3.8 17 3.2 22.3l212.1 159.1c2.8 2.1 6.1 3.2 9.5 3.2 8.8 0 15.9-7.1 15.9-15.9v-127.3z m208 327.5V706.9c0 8.8 7.1 15.9 15.9 15.9 3.4 0 6.8-1.1 9.5-3.2l212.1-159.1c7-5.3 8.5-15.2 3.2-22.3-0.9-1.2-2-2.3-3.2-3.2l-212-159.1c-7-5.3-17-3.8-22.3 3.2-2.1 2.8-3.2 6.1-3.2 9.5V515.9H329.6c-35.1 0-63.6 28.5-63.6 63.6h350z"  horiz-adv-x="1024" />

    
    <glyph glyph-name="time" unicode="&#58975;" d="M523.637 384v314.096c0 19.589-15.629 34.995-34.91 34.995-19.414 0-34.908-15.668-34.908-34.995v-348.919c0-19.589 15.629-34.995 34.908-34.995 1.956 0 3.871 0.159 5.735 0.465 1.854-0.306 3.757-0.465 5.698-0.465h233.134c19.285 0 34.705 15.63 34.705 34.909 0.001 19.414-15.538 34.909-34.704 34.909h-209.658zM512-128c-282.77 0-512 229.23-512 512s229.23 512 512 512c282.769 0 512-229.23 512-512s-229.23-512-512-512zM512-58.182c244.21 0 442.181 197.972 442.181 442.182s-197.971 442.182-442.181 442.182-442.182-197.972-442.182-442.182c0-244.21 197.972-442.182 442.182-442.182z"  horiz-adv-x="1024" />

    
    <glyph glyph-name="dibu" unicode="&#58973;" d="M852.85413652 420.06267533c-7.57411931 7.53445305-17.43842691 11.30063584-27.37998081 11.30063583s-19.9603505-3.84551412-27.5344686-11.45721227L545.61380519 167.78689809000002 545.61380519 853.82920397c0 21.47600884-17.39876185 38.83510443-38.83719187 38.83510443s-38.83719187-17.35909558-38.83719187-38.83510443l0-684.13833701L217.64068208 419.89774792c-7.61169693 7.53445305-17.51567201 11.3403009-27.4572247 11.34030089-9.98121897 0-19.9248591-3.80584907-27.49689098-11.41754599-15.18372879-15.18581623-15.14614996-39.76829945 0.03966627-54.91444941l314.72885457-314.48250718c3.96242549-3.96033684 8.62213583-6.79541206 13.51566889-8.65971465 4.85386559-2.17536679 10.13570796-3.49478366 15.80585841-3.49478364 1.35908193 0 2.52400981 0.65970844 3.88309295 0.77661858 10.05846286-0.07724388 20.15659198 3.65136009 27.88520026 11.41754599L853.00862551 365.14822590999995C868.15477548 380.33195471 868.11510921 404.95410418 852.85413652 420.06267533zM973.86049627-77.19242129999998c0-21.43843002-17.35909558-38.83719187-38.83510443-38.83719187L80.63013379-116.02961316999995c-21.43843002 0-38.83719187 17.39667319-38.83719186 38.83510442 0 21.43843002 17.39876185 38.83719187 38.83719186 38.83719189l854.39525927 0C956.50140191-38.35731685999997 973.86049627-55.753991290000045 973.86049627-77.19242129999998z"  horiz-adv-x="1024" />

    
    <glyph glyph-name="dingbu" unicode="&#58974;" d="M857.18399325 411.52260414L542.72027549 726.20761755c-7.72860708 7.76618591-17.8267362 11.49478988-27.88520027 11.417546-1.35908193 0.11691015-2.52400981 0.77661859-3.88309295 0.77661858-5.67015045 0-10.95199161-1.31941686-15.8058584-3.49478366-4.89353185-1.86430259-9.5532434-4.69937781-13.51566889-8.65971465L166.90160162 411.76686287c-15.18581623-15.14614996-15.22339385-39.72863317-0.03966627-54.9144494 7.57203066-7.61169693 17.51567201-11.41754599 27.49689098-11.41754599 9.94155269 0 19.84552778 3.80584907 27.4572247 11.34030089L472.1147904 606.97996431l0-684.13833701c0-21.47600884 17.39876185-38.83510443 38.83719187-38.83510443s38.83719187 17.35909558 38.83719186 38.83510443L549.78917413 608.8839319599999l252.32588194-252.1192008c7.57411931-7.61169693 17.59291589-11.45721227 27.53446859-11.45721227s19.80586151 3.76618279 27.37998082 11.30063584C872.29047815 371.71672708999995 872.33014321 396.33887656 857.18399325 411.52260414zM939.2007608 815.02814814L84.80550154 815.02814814c-21.43843002 0-38.83719187 17.39876185-38.83719188 38.83719187S63.36707152 892.70044444 84.80550154 892.70044444l854.39525926 0c21.47600884 0 38.83510443-17.39876185 38.83510443-38.83719187S960.67676964 815.02814814 939.2007608 815.02814814z"  horiz-adv-x="1024" />

    
    <glyph glyph-name="yichu" unicode="&#58968;" d="M512.4 445c-35.1 0-63.7-28.5-63.7-63.7v-190.8c0-35.1 28.5-63.7 63.7-63.7 35.1 0 63.7 28.5 63.7 63.7v191c-0.1 35.2-28.6 63.5-63.7 63.5z m-318 127.3h636l-57.9-578.8c-3.3-32.5-30.6-57.2-63.3-57.2H315.6c-32.7 0-60 24.7-63.3 57.2l-57.9 578.8zM194.4 763.1h636c35.1 0 63.7-28.5 63.7-63.7s-28.5-63.7-63.7-63.7h-636c-35.1 0-63.7 28.5-63.7 63.7s28.6 63.7 63.7 63.7zM576 763.1v-63.7c0-35.1-28.5-63.7-63.7-63.7-35.1 0-63.7 28.5-63.7 63.7v63.7c0 35.1 28.5 63.7 63.7 63.7 35.2-0.2 63.7-28.5 63.7-63.7z"  horiz-adv-x="1024" />

    
    <glyph glyph-name="dingdian" unicode="&#58969;" d="M512 352c70.7 0 128.1 57.4 128.1 128.1S582.7 608.2 512 608.2s-128.1-57.4-128.1-128.1S441.3 352 512 352z m273.1-152.5c-1.4-1.3-92-89.3-273.1-263.9L240.2 198.2c-72.7 70.9-112.5 164.1-112.5 262.6 0 204.8 172.9 371.6 384.3 371.6s384.3-166.7 384.3-371.6c0-98.5-39.8-191.7-111.2-261.3z"  horiz-adv-x="1024" />

    
    <glyph glyph-name="shezhi1" unicode="&#58970;" d="M511.8 262.5c66.8 0 121 54.2 121 121s-54.2 121-121 121-121-54.2-121-121 54.1-121 121-121zM542 789.7l291.2-168.1c28.1-16.2 45.4-46.2 45.4-78.6v-318.8c0-32.4-17.3-62.4-45.4-78.6l-276-159.5a90.896 90.896 0 0 0-90.8 0L190.3 145.5c-28.1 16.2-45.4 46.2-45.4 78.6V542.9c0 32.4 17.3 62.4 45.4 78.6l291.2 168.1c18.7 10.9 41.8 10.9 60.5 0.1z"  horiz-adv-x="1024" />

    
    <glyph glyph-name="gonggongfuwu" unicode="&#58967;" d="M137.5 44.5zM841.7 575V675H63.2v-559.5H181v-100.1h778.6V575H841.7z m-713.8 53.2h651.9v-465.1H128l-0.1 465.1z m769.7-565.1H245.8v52.5h596V528.1h55.8v-465zM155.8 752.1h593.4v-44.3H155.8zM735.8 397.6c-14.1 4.1-28.8-4-32.9-18.1-7.3-25.2-22.7-57.4-54.8-67.8-29.9-9.7-86.8-4.9-187.8 73.5-40 31-83 42.7-127.9 34.7-100-17.8-171-129.9-174-134.6-7.8-12.4-4-28.8 8.4-36.6 4.4-2.7 9.3-4.1 14.1-4.1 8.8 0 17.5 4.4 22.5 12.5 0.6 1 61.7 96.9 138.5 110.5 29.8 5.3 57.9-2.7 85.9-24.4 49-38 94-64 133.9-77.3 38.3-12.8 72.9-14.4 102.8-4.7 23.2 7.5 43 21.6 59 41.9 13.2 16.8 23.4 37.5 30.4 61.6 4.1 14.1-4 28.8-18.1 32.9zM611.5 490.3m-57.1 0a57.1 57.1 0 1 1 114.2 0 57.1 57.1 0 1 1-114.2 0Z"  horiz-adv-x="1024" />

    
    <glyph glyph-name="biaozhufuwu" unicode="&#58966;" d="M137.5 44.5zM511.3 498.9c43.5 0 78.7 35.2 78.7 78.7s-35.2 78.7-78.7 78.7-78.7-35.2-78.7-78.7c0-43.4 35.2-78.7 78.7-78.7zM691.6 761.1c20-19.1 37-41.5 50.2-66.1H888v-597.3l-147 177-184-236H186.3l226.6 277.5c37.3-46.5 68.9-78.7 70.5-80.4l27-27.4 27.9 26.5c2 1.9 48.9 46.6 96.4 108.9 66.5 87.3 100.2 164.2 100.2 228.7 0 123.3-100.3 223.5-223.5 223.5-123.3 0-223.5-100.3-223.5-223.5 0-52.5 26.5-117.8 78.9-194.3L137.9 98l-0.1 597h143.1c13.1 24.7 30.1 47 50.1 66.1H63.3v-789.6h896V761.1H691.6z m51.3-606l96.7-116.4H652.2l90.7 116.4zM511.3 717.6c80 0 145.1-65.1 145.1-145.1 0-46-28.9-108.4-83.5-180.3-22-28.9-44.1-54.1-60.8-72-16.7 18.8-39.1 45.2-61.5 75.3-54.4 73.3-84.4 136.1-84.4 176.9 0 80.1 65.1 145.2 145.1 145.2zM137.9 38.700000000000045z"  horiz-adv-x="1024" />

    
    <glyph glyph-name="tongjixinxi" unicode="&#58965;" d="M127.9 744c-35.9 0-65.1-30.2-65.1-67.5S92 609 127.9 609c35.9 0 65 30.2 65 67.5 0.1 37.3-29 67.5-65 67.5z m805.1 3.9H293.4c-7.2-0.1-14.1-3.1-19.1-8.4-5-5.2-7.8-12.2-7.6-19.5v-76.9c0-15.4 11.9-27.8 26.8-27.8H933c7.2 0.1 14.1 3.1 19.2 8.4 5 5.2 7.8 12.2 7.6 19.5V720c0.1 7.2-2.6 14.2-7.6 19.5-5 5.2-11.9 8.2-19.2 8.4z m0-294.7H293.4c-7.2-0.1-14.1-3.1-19.1-8.4-5-5.2-7.8-12.2-7.6-19.5v-76.9c0-15.4 11.9-27.8 26.8-27.8H933c7.2 0.1 14.1 3.1 19.2 8.4 5 5.2 7.8 12.2 7.6 19.5v76.9c0.1 7.2-2.6 14.2-7.6 19.5-5 5.2-11.9 8.2-19.2 8.3z m0-294.6H293.4c-7.2-0.1-14.1-3.1-19.1-8.4-5-5.2-7.8-12.2-7.6-19.5v-76.9c0-15.4 11.9-27.8 26.8-27.8H933c7.2 0.1 14.1 3.1 19.2 8.4 5 5.2 7.8 12.2 7.6 19.5v76.9c0.1 7.2-2.6 14.2-7.6 19.5-5 5.2-11.9 8.2-19.2 8.3zM127.9 449.4c-35.9 0-65.1-30.2-65.1-67.5s29.2-67.5 65.1-67.5c35.9 0 65 30.2 65 67.5 0.1 37.2-29 67.5-65 67.5z m0-294.7c-35.9 0-65.1-30.2-65.1-67.5s29.2-67.5 65.1-67.5c35.9 0 65 30.2 65 67.5 0.1 37.3-29 67.5-65 67.5z m0 0"  horiz-adv-x="1024" />

    
    <glyph glyph-name="zuobiaoxi" unicode="&#58964;" d="M958.8 383.7c0.1 118.7-47 232.7-130.9 316.6C744 784.4 630.1 831.5 511.4 831.4c-118.7 0.1-232.7-47.1-316.6-131-84-84-131.1-197.9-130.9-316.7 0-226.4 168.5-416 389.6-442.4 10.5 0 26.3-5.3 47.4-5.3h15.8c242.1 5.4 442.1 205.5 442.1 447.7z m-63.1-5.2c0 21.1-5.3 42.1-10.5 63.2v21c5.3-26.3 10.5-52.7 10.5-79v-5.2zM127 383.7c0 26.4 5.3 52.7 10.5 79 15.8-15.8 57.9-15.8 63.2 10.6 15.8-10.6 42.1-10.6 42.1-31.6 0-68.5 0-136.9 63.2-142.2 0 0 31.6-10.6 47.4-52.7 5.3-15.8 26.3 0 47.4 0 10.5 0 0-21 0-63.2s89.5-105.4 89.5-105.4c0-26.3 0-47.4 5.3-68.4-21.1 0-36.9 0-52.7-5.3C263.9 41.4 127 199.4 127 383.7z m479.1-368.6c0 10.5-10.5 15.8-26.3 10.5 10.5 52.7 21 84.3 47.4 105.4 36.8 31.6 5.3 68.4-26.4 63.2-21-5.3-10.5 26.4-26.3 31.6-21.1 0-47.4 42.1-79 57.9-15.8 5.3-31.6 26.4-52.7 26.4s-52.7-15.8-52.7-5.3c0 47.4-5.3 78.9-5.3 94.8 0 10.5-5.3 5.3 21.1 5.3 15.8 0 10.5 31.6 21 31.6 15.8 0 52.7-15.8 63.2-10.5 10.6 5.3 63.2-142.2 63.2-26.4 0 15.8-5.3 36.9 0 52.7 26.4 52.7 57.9 94.8 52.7 100 0 5.3-31.6 5.3-52.7 0-5.3 0 0-15.8-10.5-15.8-42.1-10.5-79 10.5-63.2 31.6 10.5 21 57.9 10.5 63.2 47.4 0 21 5.3 47.4 5.3 68.5 52.7-10.6 47.4 73.7-31.6 79 163.2 0 305.3-110.6 358-258.1 0 0-5.3 5.3-10.5 5.3-26.4 68.5-84.3 21.1-63.2-31.6-110.6-84.3-79-142.2-47.4-173.8 21-15.8 36.8-42.1 47.4-63.2-10.6-36.9 47.3-21 79 42.1-36.8-131.7-142-237-273.7-268.6z m0 0"  horiz-adv-x="1024" />

    
    <glyph glyph-name="touyingguanli" unicode="&#58963;" d="M850.6 274.2V497.6c30.3 9.4 52.4 38 52.4 71.9 0 41.5-33.1 75.2-74.1 75.2-19.4 0-37-7.6-50.2-19.9L583.5 739.2c1.2 5.4 1.9 11.1 1.9 16.9 0 41.5-33.1 75.2-74.1 75.2-40.9 0-74.1-33.7-74.1-75.2 0-5.8 0.7-11.5 1.9-16.9L244 624.8a73.311 73.311 0 0 1-50.2 19.9c-40.9 0-74.1-33.7-74.1-75.2 0-33.9 22.1-62.5 52.4-71.9v-223.3c-30.3-9.4-52.4-38-52.4-71.9 0-41.6 33.2-75.2 74.1-75.2 18 0 34.5 6.5 47.3 17.3l198.1-116.1c-1.3-5.5-1.9-11.2-1.9-16.9 0-41.5 33.2-75.2 74.1-75.2 40.9 0 74.1 33.7 74.1 75.2 0 5.8-0.7 11.5-1.9 16.9l198.1 116.1c12.8-10.8 29.3-17.3 47.3-17.3 40.9 0 74.1 33.7 74.1 75.2-0.2 33.8-22.2 62.4-52.5 71.8z m-72.5-17.1l-172.8 98.4c5.5 18.8 5.5 38.7-0.2 57.4L778.9 514c8.1-7.4 17.7-13.1 28.3-16.4v-223.3c-10.9-3.5-20.8-9.3-29.1-17.2z m-21.2 294.8L583.5 451.1c-13.4 14.8-31 25.2-50.5 29.8V684.2c10.9 3.4 20.7 9.2 28.8 16.9l195-114.3c-2.6-11.5-2.6-23.4 0.1-34.9zM489.7 684.2v-203.3c-19.8-4.6-37.7-15.2-51.1-30.4l-173.5 98.8c3.4 12.3 3.7 25.2 0.8 37.6l195 114.3c8.1-7.8 17.9-13.7 28.8-17z m-248-172.1L417.4 412c-5.4-18.8-5.3-38.7 0.3-57.4l-171.2-99.4c-8.6 8.8-19.2 15.4-31 19.1V497.6c9.7 3 18.6 8 26.2 14.5z m24.9-296l172.6 100.3c13.3-14.6 30.8-25.2 50.5-29.7v-203.4c-10.9-3.4-20.7-9.2-28.8-16.9l-196 114.9c3.3 11.3 3.8 23.2 1.7 34.8zM533 83.4V286.8c20 4.6 37.8 15.4 51.1 30.4l172.6-98.3c-2.8-12.4-2.4-25.3 1.1-37.5l-196-114.9c-8.1 7.7-18 13.5-28.8 16.9z m0 0"  horiz-adv-x="1024" />

    
    <glyph glyph-name="shuiyinguanli" unicode="&#58962;" d="M887.9-63.9H776.8l182 182.1V7c0-39.2-31.7-70.9-70.9-70.9z m-373.5 0l444.5 444.6v-149.6l-295-295H514.4z m-262.4 0l706.9 707.2v-149.6L401.5-63.9H252z m-117.3 0c-39.2 0-70.9 31.7-70.9 70.9v3.5l820.7 821h3.4c39.2 0 70.9-31.7 70.9-70.9v-4.4L139.1-63.9h-4.4zM63.8 273L622.1 831.4h149.6l-707.9-708V273z m0 262.5L359.7 831.4h149.6L63.8 385.9V535.5z m0 225.1c0 39.2 31.7 70.9 70.9 70.9h112.1l-183-183V760.6z m0 0"  horiz-adv-x="1024" />

    
    <glyph glyph-name="biaozhuyangshi" unicode="&#58961;" d="M166 221.4s-53.8 246.1 231.8 376.9c55.2 26.3 102.3 36 230 42.3 127.7 6.2 239.8 50.7 325.3 190.9 3.6-34.7 29.8-307-57-483.2s-303-467.2-664.7-230.9c0 0-57.7-44-111.5-169.9-9.7-22.7-72.7-15.7-53.1 61.1C83.2 62 183.6 182.8 229 221.5s95.8 71.4 267.6 100.8c171.9 29.4 229.9 62.1 306.7 224.9-4-2-77.4-114.8-217.6-142.2-45.4-11.3-202.9-23.4-249.6-48.1s-79.3-26-170.1-135.5z"  horiz-adv-x="1024" />

    
    <glyph glyph-name="sebanfangan" unicode="&#58960;" d="M508.4-63.9c-119.8 0-231.7 46.3-315.2 130.4-83.4 84.1-129.4 196.8-129.4 317.3S109.8 617 193.2 701c83.5 84.1 195.4 130.4 315.2 130.4 115.1 0 225.2-41.1 310-115.6 41-36 74-78 98.1-124.7 24.9-48.3 39.2-99.4 42.3-152l0.1-0.9v-0.9c0-71.5-26.8-137.9-75.4-186.8-48.7-49-114.7-76-185.8-76h-82.8c-23.8 0-40.4-21.6-40.4-41 0-10.6 3.4-20.6 8.9-26.1l2.1-2.1 1.7-2.5c12-18.2 22.9-36.8 22.9-64.6 0-28-11.3-54.1-31.7-73.5-19.2-18.2-44.6-28.6-70-28.6z m0 834.2c-215 0-383.5-169.8-383.5-386.5 0-216.8 168.4-386.6 383.5-386.6 19.1 0 40.4 16.8 40.4 40.9 0 8.3-1.7 13.9-11.3 28.7-15.4 17-24.2 41-24.2 66.7 0 25.4 10.3 50.9 28.2 70.1 19.3 20.7 45.4 32 73.3 32h82.8c113.8 0 199.6 86.3 200.1 200.8-11.6 184.2-186 333.9-389.3 333.9z m248.4-417.1c-25.3 0-50.8 10.4-69.8 28.5-20.4 19.4-31.7 45.5-31.7 73.5 0 25.4 10.3 50.9 28.2 70.1 19.3 20.7 45.4 32 73.3 32 25.4 0 50.9-10.4 69.9-28.5 20.4-19.4 31.7-45.6 31.7-73.6 0-25-11.3-50.8-31.1-70.7-19.8-19.8-45.5-31.3-70.5-31.3z m0 143c-23.8 0-40.3-21.6-40.3-41 0-24.1 21.3-40.9 40.3-40.9 18.5 0 40.4 22.1 40.4 40.9 0 24.2-21.3 41-40.4 41z m-502.7-143c-25.3 0-50.8 10.4-69.8 28.5-20.4 19.4-31.7 45.5-31.7 73.5 0 25.4 10.3 50.9 28.2 70.1 19.3 20.7 45.4 32 73.3 32 25.3 0 50.8-10.4 69.9-28.5 20.5-19.4 31.7-45.6 31.7-73.6 0-52.4-49.4-102-101.6-102z m0 143c-23.8 0-40.4-21.6-40.4-41 0-24.1 21.3-40.9 40.4-40.9 18.5 0 40.4 22.1 40.4 40.9 0 24.2-21.3 41-40.4 41z m366.7 41.7c-25.4 0-50.8 10.4-69.9 28.6-20.4 19.4-31.6 45.5-31.6 73.5 0 25.4 10.3 50.9 28.2 70.1 19.3 20.6 45.4 32 73.3 32 25.3 0 50.8-10.4 69.8-28.5 20.4-19.4 31.7-45.5 31.7-73.5v-2.5l-0.4-2.5c-7.8-47.8-47.8-97.2-101.1-97.2z m0 143c-23.8 0-40.4-21.6-40.4-40.9 0-24.1 21.3-41 40.4-41 16.8 0 35.5 20.4 40.3 43.4-1.3 22.8-21.8 38.5-40.3 38.5z m-230.7-143c-25.3 0-50.8 10.4-69.9 28.6-20.4 19.4-31.7 45.6-31.7 73.5 0 25.4 10.3 50.9 28.2 70.1 19.3 20.6 45.4 32 73.3 32 25.3 0 50.8-10.4 69.9-28.5 20.4-19.4 31.7-45.5 31.7-73.5 0.1-52.6-49.3-102.2-101.5-102.2z m0 143c-23.8 0-40.4-21.6-40.4-40.9 0-24.1 21.3-41 40.4-41 18.5 0 40.4 22.2 40.4 41 0.1 24.1-21.3 40.9-40.4 40.9z"  horiz-adv-x="1024" />

    
    </font>
</defs>
</svg>
