<svg xmlns="http://www.w3.org/2000/svg" width="190" height="190" ref="svg_canvas" preserveAspectRatio="none" version="1.1" style="background: #ffffff;">
  <defs/>
  <g id="shape_gkRO4aU1Uz" class="" ref="shape_gkRO4aU1Uz" key="shape_gkRO4aU1Uz" transform="rotate(0,60.518817418811,92.784104474353) scale(1,1)" style="cursor:move;display:inline;opacity:1;" filter="">
    <g style="display:inline">
      <rect fill="rgba(0,0,0,0)" width="141.03763483762108" height="205.56820894870512" x="-10" y="-10"/>
      <svg xmlns="http://www.w3.org/2000/svg" xmlns:xlink="http://www.w3.org/1999/xlink" version="1.1" id="图层_1" x="0px" y="0px" width="121.03763483762108" height="185.56820894870512" viewBox="0 0 247.4 379.3" style="enable-background:new 0 0 247.4 379.3;" xml:space="preserve" class="style-removed" preserveAspectRatio="none" data-parent="shape_gkRO4aU1Uz">

<g>
	<polygon points="197.2,44.6 197.2,81.4 233.2,81.4 233.2,117.5 197.1,117.5 197.1,81.5 43.6,57.8 43.6,327.2    197.2,306.3 197.2,280.7 230.4,280.7 230.4,331.9 0,379.3 0,0  " fill="#06B79D" stroke-width="0"/>
	
		<rect x="222.8" y="29" transform="matrix(-1 -4.544377e-11 4.544377e-11 -1 470.2307 82.4748)" width="24.5" height="24.5" fill="#06B79D" stroke-width="0"/>
</g>
</svg>
    </g>
  </g>
  <g id="shape_CMExsifM1Y" class="brand_name" ref="shape_CMExsifM1Y" key="shape_CMExsifM1Y" transform="translate(110,60) rotate(0,86.84666783810201,90.6816) scale(1,1)" style="cursor:move;display:inline;opacity:1;" filter="">
    <g style="display:inline">
      <svg xmlns="http://www.w3.org/2000/svg" xmlns:xlink="http://www.w3.org/1999/xlink" version="1.1" width="160.28" height="181.3632" viewBox="0 0 160.28 181.3632" preserveAspectRatio="none" data-parent="shape_CMExsifM1Y">
        <rect fill="rgba(0,0,0,0)" width="57" height="25" x="25.82" y="78.1816"/>
        <g data-width="56.02623239886733" transform="translate(25.82, 0)">
          <path d="M5.63-7.31L5.63-7.31L8.60-6.30Q7.51-4.44 6.09-2.57Q4.67-0.70 3.38 0.67L3.38 0.67Q2.89 0.26 2.13-0.31Q1.37-0.88 0.80-1.24L0.80-1.24Q3.67-3.82 5.63-7.31ZM23.88-11.90L23.88-8.80L15.05-8.80L15.05-1.45Q15.05 1.06 13.63 1.58L13.63 1.58Q12.06 2.22 8.83 2.12L8.83 2.12Q8.73 1.42 8.44 0.56Q8.16-0.31 7.80-1.01L7.80-1.01Q8.68-0.98 9.50-0.98Q10.33-0.98 10.87-0.98L10.87-0.98Q11.13-0.98 11.26-0.98L11.26-0.98Q11.59-0.98 11.74-1.08Q11.88-1.19 11.88-1.50L11.88-1.50L11.88-8.80L6.56-8.80Q5.45-8.80 4.49-8.70Q3.54-8.60 3.30-8.39L3.30-8.39Q3.18-8.91 2.88-9.75Q2.58-10.59 2.30-11.21L2.30-11.21Q2.92-11.49 3.23-12.88L3.23-12.88Q3.41-13.63 3.72-15.76Q4.03-17.89 4.03-20.17L4.03-20.17Q13.92-20.35 21.40-21.69L21.40-21.69L22.95-18.93Q15.78-17.58 7.05-17.43L7.05-17.43Q6.74-14.49 6.15-11.90L6.15-11.90L11.88-11.90L11.88-16.34L15.05-16.34L15.05-11.90L23.88-11.90ZM17.51-6.15L17.51-6.15L20.19-7.28Q21.46-5.71 22.80-3.91Q24.14-2.12 24.92-0.70L24.92-0.70L22.00 0.62Q21.30-0.77 20.04-2.63Q18.77-4.49 17.51-6.15Z" transform="translate(0 100.1816) " fill="rgb(96, 96, 96)" stroke="rgb(96, 96, 96)" stroke-width="0.043" data-glyph-w="28.013116199433664" data-glyph-h="25.82" data-glyph-ascender="22.7216" data-glyph-descender="-3.0984"/>
          <path d="M5.63-7.31L5.63-7.31L8.60-6.30Q7.51-4.44 6.09-2.57Q4.67-0.70 3.38 0.67L3.38 0.67Q2.89 0.26 2.13-0.31Q1.37-0.88 0.80-1.24L0.80-1.24Q3.67-3.82 5.63-7.31ZM23.88-11.90L23.88-8.80L15.05-8.80L15.05-1.45Q15.05 1.06 13.63 1.58L13.63 1.58Q12.06 2.22 8.83 2.12L8.83 2.12Q8.73 1.42 8.44 0.56Q8.16-0.31 7.80-1.01L7.80-1.01Q8.68-0.98 9.50-0.98Q10.33-0.98 10.87-0.98L10.87-0.98Q11.13-0.98 11.26-0.98L11.26-0.98Q11.59-0.98 11.74-1.08Q11.88-1.19 11.88-1.50L11.88-1.50L11.88-8.80L6.56-8.80Q5.45-8.80 4.49-8.70Q3.54-8.60 3.30-8.39L3.30-8.39Q3.18-8.91 2.88-9.75Q2.58-10.59 2.30-11.21L2.30-11.21Q2.92-11.49 3.23-12.88L3.23-12.88Q3.41-13.63 3.72-15.76Q4.03-17.89 4.03-20.17L4.03-20.17Q13.92-20.35 21.40-21.69L21.40-21.69L22.95-18.93Q15.78-17.58 7.05-17.43L7.05-17.43Q6.74-14.49 6.15-11.90L6.15-11.90L11.88-11.90L11.88-16.34L15.05-16.34L15.05-11.90L23.88-11.90ZM17.51-6.15L17.51-6.15L20.19-7.28Q21.46-5.71 22.80-3.91Q24.14-2.12 24.92-0.70L24.92-0.70L22.00 0.62Q21.30-0.77 20.04-2.63Q18.77-4.49 17.51-6.15Z" transform="translate(28.013116199433664 100.1816) " fill="rgb(96, 96, 96)" stroke="rgb(96, 96, 96)" stroke-width="0.043" data-glyph-w="28.013116199433664" data-glyph-h="25.82" data-glyph-ascender="22.7216" data-glyph-descender="-3.0984"/>
        </g>
      </svg>
    </g>
  </g>
  <g key="shape_XoTI7UADQv" transform="translate(-50,-240) scale(1,1)" style="cursor:move;display:inline;opacity:1;" filter="">
    <g style="display:inline">
      <svg xmlns="http://www.w3.org/2000/svg" xmlns:xlink="http://www.w3.org/1999/xlink" version="1.1" width="457.84" height="672.038" viewBox="0 0 457.84 672.038" preserveAspectRatio="none" data-parent="shape_XoTI7UADQv">
        <rect fill="rgba(0,0,0,0)" width="85" height="93" x="93.21" y="289.519"/>
        <g data-width="84.26184" transform="translate(93.21, 0)">
          <path d="M41.11-15.29L42.13-13.98L41.01 0L5.13 0L6.06-17.71L5.13-60.31L24.14-60.31L23.12-19.57L23.30-15.29L41.11-15.29Z" transform="translate(0 363.519) " fill="rgb(96, 96, 96)" stroke="rgb(96, 96, 96)" stroke-width="0.155" data-glyph-w="42.13092" data-glyph-h="111.852" data-glyph-ascender="83.889" data-glyph-descender="-27.963"/>
          <path d="M41.11-15.29L42.13-13.98L41.01 0L5.13 0L6.06-17.71L5.13-60.31L24.14-60.31L23.12-19.57L23.30-15.29L41.11-15.29Z" transform="translate(42.13092 363.519) " fill="rgb(96, 96, 96)" stroke="rgb(96, 96, 96)" stroke-width="0.155" data-glyph-w="42.13092" data-glyph-h="111.852" data-glyph-ascender="83.889" data-glyph-descender="-27.963"/>
        </g>
      </svg>
    </g>
  </g>
</svg>